<?xml version="1.0" encoding="utf-8"?>
<!-- Generator: Adobe Illustrator 28.2.0, SVG Export Plug-In . SVG Version: 6.00 Build 0)  -->
<svg version="1.1" id="Layer_1" xmlns="http://www.w3.org/2000/svg" xmlns:xlink="http://www.w3.org/1999/xlink" x="0px" y="0px"
	 viewBox="0 0 16 16" style="enable-background:new 0 0 16 16;" xml:space="preserve">
<style type="text/css">
	.st0{fill-rule:evenodd;clip-rule:evenodd;fill:#FCFCFC;}
</style>
<path class="st0" d="M6.7,1.6C6.4,1.7,6.2,1.7,5.9,1.8L5.7,1.9l0,0.2c0,0.1,0,0.3,0,0.6c0,0.2,0,0.4,0,0.4c0,0,0,0.1-0.2,0.1
	C5.4,3.3,5.2,3.4,5.1,3.4L4.9,3.5L4.7,3.4C4.6,3.3,4.4,3.2,4.2,3.1L3.9,2.9L3.8,3C3.6,3.2,3.2,3.6,3,3.8l0,0l0.3,0.5L3.5,5L3.4,5.1
	C3.4,5.2,3.3,5.3,3.2,5.4L3.1,5.6l-0.5,0c-0.3,0-0.6,0-0.6,0l-0.1,0L1.8,5.9c-0.1,0.3-0.2,0.9-0.2,1c0,0,0.1,0.1,0.5,0.3l0.5,0.3
	l0,0.4l0,0.4L2.1,8.7C1.7,9,1.6,9,1.6,9.1c0,0.1,0.1,0.4,0.1,0.7c0.1,0.2,0.2,0.6,0.2,0.6c0,0,0.3,0,0.6,0l0.6,0l0.1,0.2
	c0.1,0.1,0.2,0.3,0.2,0.3L3.5,11l-0.3,0.5l-0.3,0.5l0.1,0.1c0.2,0.2,0.5,0.5,0.7,0.7l0.1,0.1l0.4-0.2c0.2-0.1,0.5-0.2,0.5-0.3
	l0.1-0.1l0.1,0.1c0.1,0.1,0.2,0.1,0.3,0.2c0.1,0.1,0.2,0.1,0.2,0.1c0,0,0,0.3,0,0.6c0,0.3,0,0.6,0,0.6c0,0,0.5,0.2,0.7,0.2
	c0.2,0.1,0.5,0.1,0.5,0.1c0,0,0.1-0.2,0.3-0.5l0.3-0.5l0.4,0l0.4,0l0.3,0.5C8.9,14.2,9,14.4,9,14.4c0,0,0,0,0.2,0
	c0.2,0,0.7-0.2,0.9-0.2l0.2-0.1l0-0.2c0-0.1,0-0.4,0-0.6l0-0.4l0.2-0.1c0.1-0.1,0.3-0.1,0.3-0.2l0.2-0.1l0.1,0c0.3,0.2,1,0.5,1,0.5
	c0.1,0,0.9-0.9,0.9-0.9c0,0-0.1-0.3-0.3-0.5L12.5,11l0.1-0.1c0.1-0.1,0.1-0.2,0.2-0.3l0.1-0.2l0.6,0c0.3,0,0.6,0,0.6,0
	c0,0,0.2-0.4,0.2-0.6c0.1-0.2,0.1-0.6,0.1-0.6c0,0-0.2-0.1-0.5-0.3l-0.5-0.3l0-0.4l0-0.4l0.5-0.3c0.3-0.2,0.5-0.3,0.5-0.3
	c0,0-0.1-0.4-0.1-0.6c-0.1-0.2-0.2-0.7-0.2-0.7c0,0-0.3,0-0.6,0l-0.6,0l-0.1-0.2c-0.1-0.1-0.2-0.3-0.3-0.5c0,0,0-0.1,0.3-0.5
	C12.9,4.1,13,3.9,13,3.9c0,0-0.6-0.7-0.8-0.9l-0.1-0.1l-0.5,0.3L11,3.5l-0.2-0.1c-0.1-0.1-0.3-0.2-0.3-0.2l-0.1-0.1l0-0.3
	c0-0.2,0-0.5,0-0.6l0-0.3l-0.2-0.1c-0.1,0-0.3-0.1-0.4-0.1c-0.2,0-0.6-0.1-0.6-0.1c0,0-0.1,0.1-0.3,0.5L8.4,2.6H8H7.6L7.3,2.1
	C6.9,1.5,7,1.6,6.7,1.6 M7.5,3.5c-0.4,0-0.8,0.1-1.2,0.3C6.1,3.8,5.7,4.1,5.5,4.2C5.2,4.4,5,4.5,4.8,4.8C4.1,5.5,3.7,6.2,3.5,7.1
	c-0.1,0.5-0.1,1.1,0,1.6c0.1,0.8,0.5,1.5,0.9,2.1c0.1,0.1,0.2,0.3,0.4,0.4c0.6,0.6,1.3,1,2.1,1.2c0.6,0.2,1.4,0.2,2,0
	c1.4-0.3,2.5-1.2,3.2-2.5c0.2-0.4,0.4-0.9,0.4-1.4c0-0.3,0-0.9,0-1.2c-0.1-0.9-0.4-1.6-1-2.3c-0.8-0.9-1.9-1.6-3.1-1.7
	C8.2,3.4,7.7,3.4,7.5,3.5 M7.5,3.7C6.3,3.8,5.4,4.4,4.6,5.3C3.9,6.2,3.5,7.4,3.7,8.6c0.2,1.7,1.5,3.1,3.2,3.6c0.3,0.1,0.6,0.1,1,0.1
	c0.4,0,0.6,0,1-0.1c0.7-0.1,1.3-0.4,1.8-0.9c1.1-0.9,1.8-2.3,1.6-3.8c-0.1-1-0.5-1.9-1.2-2.7c-0.7-0.7-1.6-1.1-2.6-1.3
	C8.2,3.7,7.7,3.7,7.5,3.7 M7.7,5.8C7.5,5.9,7.2,6,7,6.1C6.7,6.2,6.4,6.5,6.2,6.8C6,7,5.9,7.3,5.9,7.6c0,0.2,0,0.6,0,0.9
	C6.1,9.2,6.5,9.7,7.1,10c0.3,0.1,0.5,0.2,0.8,0.2c0.5,0,0.9-0.1,1.3-0.4C9.7,9.5,10,9,10.1,8.4c0-0.2,0-0.6,0-0.8
	C10,7,9.7,6.6,9.3,6.2C9,6,8.6,5.9,8.3,5.9C8.2,5.8,7.9,5.8,7.7,5.8 M7.8,6.5c-0.3,0-0.5,0.1-0.7,0.3C7,6.9,6.8,7.1,6.7,7.2
	C6.6,7.4,6.5,7.6,6.5,7.8c0,0.2,0,0.6,0.1,0.8C6.7,8.9,7,9.2,7.3,9.4C7.5,9.5,7.7,9.5,8,9.5c0.5,0,0.9-0.2,1.2-0.6
	c0.5-0.7,0.3-1.7-0.4-2.2C8.6,6.5,8.2,6.5,7.8,6.5 M7.7,6.9C7.7,7,7.6,7,7.5,7C7.4,7.1,7.4,7.1,7.2,7.2C7,7.5,6.9,7.7,6.9,8
	c0,0.1,0,0.2,0,0.3C7.1,8.7,7.3,8.9,7.7,9c0.1,0,0.2,0,0.3,0c0.2,0,0.2,0,0.3,0C8.7,8.9,9,8.6,9.1,8.2c0-0.2,0-0.5-0.1-0.7
	C8.8,7.3,8.6,7.1,8.3,7C8.2,6.9,7.9,6.9,7.7,6.9"/>
</svg>
