<?xml version="1.0" encoding="utf-8"?>
<!-- Generator: Adobe Illustrator 28.2.0, SVG Export Plug-In . SVG Version: 6.00 Build 0)  -->
<svg version="1.1" id="Layer_1" xmlns="http://www.w3.org/2000/svg" xmlns:xlink="http://www.w3.org/1999/xlink" x="0px" y="0px"
	 viewBox="0 0 64 64" style="enable-background:new 0 0 64 64;" xml:space="preserve">
<style type="text/css">
	.st0{fill-rule:evenodd;clip-rule:evenodd;fill:#3C4444;}
</style>
<path class="st0" d="M26,3.3c-1.2,0.3-2.1,0.5-3.4,0.9l-1.1,0.4l0,0.8c0,0.5-0.1,1.6-0.1,2.5c0,0.9-0.1,1.8-0.1,1.9
	c0,0.2-0.1,0.3-0.8,0.6c-0.4,0.2-1.1,0.6-1.5,0.9l-0.7,0.5l-0.9-0.5C16.8,11,15.8,10.5,15,10l-1.4-0.8l-0.4,0.3
	c-1.2,1-2.7,2.5-3.7,3.8l-0.2,0.2l1.3,2.4l1.3,2.4L11.3,19c-0.2,0.4-0.7,1.1-0.9,1.5L10,21.4l-2.3,0.1c-1.3,0-2.5,0.1-2.7,0.1
	l-0.4,0l-0.4,1.2c-0.5,1.6-1.1,3.9-1.1,4.5c0,0.1,0.4,0.4,2.2,1.6l2.2,1.4l0,1.8l0,1.8l-2.2,1.4c-1.8,1.2-2.2,1.4-2.2,1.6
	c0,0.2,0.3,1.7,0.6,3c0.3,1.1,0.8,2.6,0.9,2.7c0,0,1.2,0.1,2.7,0.1l2.6,0.1l0.5,0.9c0.3,0.5,0.7,1.2,0.9,1.5l0.4,0.6l-1.3,2.4
	l-1.3,2.4l0.5,0.6c0.7,0.8,2.3,2.4,3.1,3.1l0.6,0.5l1.8-1c1-0.5,2.1-1.1,2.4-1.3l0.5-0.3l0.7,0.4c0.4,0.2,1,0.6,1.5,0.9
	c0.5,0.3,0.9,0.5,0.9,0.6c0,0.1,0.1,1.3,0.1,2.7c0,1.4,0.1,2.6,0.1,2.6c0.1,0.1,2.3,0.8,3.3,1c0.9,0.2,2.2,0.5,2.4,0.5
	c0.1,0,0.6-0.8,1.5-2.3l1.4-2.3l1.8,0l1.8,0l1.3,2.1c0.7,1.2,1.4,2.2,1.4,2.3c0.1,0.1,0.1,0.1,0.8,0c1.1-0.2,3-0.7,4.1-1.1l1-0.3
	l0-0.8c0-0.5,0.1-1.7,0.1-2.7l0.1-1.9l0.9-0.5c0.5-0.3,1.2-0.7,1.6-0.9l0.7-0.4l0.3,0.1c1.4,0.8,4.4,2.3,4.5,2.3
	c0.3,0,4.2-3.9,4.2-4.2c0,0-0.6-1.1-1.2-2.4l-1.2-2.3l0.4-0.7c0.2-0.4,0.6-1.1,0.9-1.5l0.5-0.9l2.7-0.1c1.5,0,2.7-0.1,2.7-0.1
	c0.1-0.1,0.7-1.9,0.9-2.9c0.2-0.9,0.6-2.6,0.6-2.8c0-0.1-0.7-0.6-2.3-1.5l-2.3-1.4l0-1.8l0-1.8l2.3-1.4c1.5-0.9,2.3-1.4,2.3-1.5
	c0-0.2-0.3-1.7-0.5-2.5c-0.2-0.9-0.9-3.1-1-3.1c0,0-1.3-0.1-2.7-0.1L54,21.4l-0.4-0.7c-0.3-0.6-0.8-1.4-1.3-2.3
	c-0.1-0.1,0.1-0.4,1.2-2.5c0.7-1.3,1.2-2.4,1.2-2.4c0-0.2-2.7-3-3.8-3.9l-0.4-0.4l-2.4,1.3l-2.4,1.3l-0.9-0.6
	c-0.5-0.3-1.2-0.7-1.6-0.9L42.6,10l0-1.6c0-0.9-0.1-2.1-0.1-2.7l0-1.1l-1.1-0.4c-0.6-0.2-1.4-0.4-1.7-0.5c-0.8-0.2-2.6-0.6-2.8-0.6
	c-0.2,0-0.4,0.3-1.6,2.2l-1.4,2.2H32h-1.8l-1.4-2.2C27.1,2.8,27.5,3,26,3.3 M29.9,11.6c-1.7,0.2-3.7,0.7-5.5,1.4
	c-0.9,0.3-2.7,1.3-3.6,1.9c-1.3,0.9-2.2,1.6-3.3,2.8c-2.9,3-4.8,6.5-5.6,10.6c-0.4,2.1-0.4,5-0.1,7.2c0.6,3.4,2,6.7,4.2,9.4
	c0.3,0.4,1,1.2,1.6,1.7c2.7,2.7,5.8,4.4,9.5,5.4c2.7,0.7,6.1,0.7,9,0.2c6.1-1.2,11.4-5.3,14.3-11c0.9-1.9,1.6-4,1.9-6.3
	c0.2-1.2,0.2-4.1,0-5.3c-0.6-4-2-7.4-4.4-10.3c-3.5-4.2-8.6-7-13.9-7.5C33.1,11.5,30.7,11.5,29.9,11.6 M29.6,12.6
	c-5.1,0.6-9.6,3.1-12.8,7c-3.5,4.3-5,9.7-4.2,15.2c1.1,7.6,6.8,14,14.3,16c1.5,0.4,2.8,0.6,4.5,0.6c1.9,0,2.9,0,4.5-0.4
	c3-0.6,5.8-1.9,8.2-3.8c5.2-4.1,7.9-10.5,7.3-17c-0.4-4.6-2.4-8.8-5.6-12c-3.2-3.2-7.1-5.2-11.7-5.7C33.1,12.5,30.7,12.5,29.6,12.6
	 M30.6,22.3c-0.9,0.1-2.1,0.5-3.1,1c-1.2,0.6-2.8,2-3.6,3.1c-0.8,1.2-1.4,2.6-1.6,4c-0.2,1-0.1,2.9,0.1,3.9c0.7,2.9,2.6,5.3,5.3,6.5
	c1.4,0.6,2.3,0.9,3.8,0.9c2.2,0.1,4-0.4,5.8-1.6c2.2-1.5,3.6-3.6,4.2-6.3c0.2-0.9,0.2-2.8,0-3.8c-0.5-2.5-1.9-4.6-3.9-6
	c-1.2-0.8-2.8-1.5-4.1-1.7C32.8,22.2,31.3,22.2,30.6,22.3 M31.2,25.2c-1.1,0.1-2.3,0.6-3.3,1.3c-0.5,0.4-1.4,1.4-1.8,2
	c-0.4,0.7-0.8,1.7-0.9,2.5c-0.2,1.1,0.1,2.7,0.5,3.8c0.6,1.4,1.8,2.6,3.3,3.4c0.9,0.5,1.8,0.7,2.9,0.7c2.3,0,4.2-0.9,5.5-2.7
	c2.3-3.1,1.6-7.5-1.6-9.7C34.5,25.4,32.8,25,31.2,25.2 M30.9,27.2c-0.3,0.1-0.7,0.2-1.1,0.4c-0.5,0.2-0.7,0.4-1.2,0.9
	c-1.1,1.1-1.5,2.1-1.4,3.6c0,0.5,0.1,0.9,0.2,1.3c0.5,1.4,1.7,2.6,3.1,3.1c0.5,0.2,0.7,0.2,1.5,0.2c0.7,0,1,0,1.3-0.1
	c1.8-0.6,3.1-2,3.5-3.8c0.2-1.1,0.1-2.1-0.5-3.2c-0.6-1.1-1.6-2-2.8-2.4C32.8,27.1,31.6,27.1,30.9,27.2"/>
</svg>
