<?xml version="1.0" encoding="UTF-8"?>
<svg version="1.1" xmlns="http://www.w3.org/2000/svg" width="128" height="128">
<path d="M0 0 C42.24 0 84.48 0 128 0 C128 42.24 128 84.48 128 128 C85.76 128 43.52 128 0 128 C0 85.76 0 43.52 0 0 Z " fill="#081724" transform="translate(0,0)"/>
<path d="M0 0 C42.24 0 84.48 0 128 0 C128 42.24 128 84.48 128 128 C85.76 128 43.52 128 0 128 C0 85.76 0 43.52 0 0 Z M1 2 C0.90503292 4.40348286 0.87441138 6.77810982 0.88647461 9.18188477 C0.88632858 9.93305573 0.88618256 10.68422668 0.8860321 11.4581604 C0.88673137 13.95260459 0.89452436 16.44697503 0.90234375 18.94140625 C0.90420788 20.66633564 0.90563181 22.39126557 0.90663147 24.11619568 C0.91045703 28.66512503 0.92028762 33.21402267 0.93133545 37.76293945 C0.94154876 42.40120006 0.94612892 47.03946577 0.95117188 51.67773438 C0.96190986 60.78517022 0.97898673 69.89258248 1 79 C1.33 79 1.66 79 2 79 C2.08040527 78.26362305 2.16081055 77.52724609 2.24365234 76.76855469 C2.61288158 73.4281099 2.99380748 70.08909984 3.375 66.75 C3.50132813 65.59113281 3.62765625 64.43226562 3.7578125 63.23828125 C3.88671875 62.12324219 4.015625 61.00820313 4.1484375 59.859375 C4.26364746 58.83295898 4.37885742 57.80654297 4.49755859 56.74902344 C5.3017054 52.34926979 6.88073023 50.08189178 10 47 C11.30401331 44.45150442 12.54148914 41.90491255 13.75 39.3125 C18.01462018 30.49047364 23.12594554 23.90554085 31 18 C31.99 17.67 32.98 17.34 34 17 C32.80387967 21.93399634 29.75466292 24.19295505 25.97265625 27.25390625 C23.92959801 28.94137988 23.92959801 28.94137988 22.4140625 31.13671875 C20.59982878 33.52729743 18.80928085 34.08888189 16 35 C16.37125 36.2375 16.37125 36.2375 16.75 37.5 C17.0491413 41.68797819 16.02061992 43.59981015 14.0078125 47.16796875 C11.82669904 51.13286105 11.94405045 54.37086336 12.0625 58.74609375 C12.00033043 60.9880838 11.58578256 62.84450325 11 65 C11 65.66 11 66.32 11 67 C11.66 67 12.32 67 13 67 C12.67 67.99 12.34 68.98 12 70 C12.66 70.33 13.32 70.66 14 71 C14.33 71.66 14.66 72.32 15 73 C15.99 72.505 15.99 72.505 17 72 C17.495 72.99 17.495 72.99 18 74 C18.99 73.505 18.99 73.505 20 73 C20.495 73.99 20.495 73.99 21 75 C21 74.34 21 73.68 21 73 C21.66 73 22.32 73 23 73 C23.495 73.99 23.495 73.99 24 75 C24.02901394 71.5625177 24.04680335 68.12506688 24.0625 64.6875 C24.07087891 63.71103516 24.07925781 62.73457031 24.08789062 61.72851562 C24.09111328 60.79072266 24.09433594 59.85292969 24.09765625 58.88671875 C24.10289307 58.02264404 24.10812988 57.15856934 24.11352539 56.26831055 C24.09335523 53.83271286 24.09335523 53.83271286 23 51 C24.75 48.625 24.75 48.625 27 46 C28.73852841 43.29562247 29.98148258 41.05555227 31 38 C31.66 38 32.32 38 33 38 C32.50628906 38.68964844 32.01257813 39.37929688 31.50390625 40.08984375 C27.30867238 46.24341616 25.12259369 50.52178504 25 58 C26.32 58.33 27.64 58.66 29 59 C29 62.96 29 66.92 29 71 C27.02 71.99 27.02 71.99 25 73 C25.18129815 76.43793339 25.18129815 76.43793339 26 80 C28.82299691 82.23892859 30.2791079 82 34 82 C34.33 82.66 34.66 83.32 35 84 C37.475 83.01 37.475 83.01 40 82 C40 82.99 40 83.98 40 85 C40.66 85 41.32 85 42 85 C42.625 87.3125 42.625 87.3125 43 90 C42.34 90.99 41.68 91.98 41 93 C41.53625 92.67 42.0725 92.34 42.625 92 C45.5391061 90.77300796 47.86867708 90.85766714 51 91 C50.67 92.98 50.34 94.96 50 97 C51.0828125 96.7834375 51.0828125 96.7834375 52.1875 96.5625 C54.0625 96.1875 55.9375 95.8125 57.8125 95.4375 C58.8953125 95.2209375 58.8953125 95.2209375 60 95 C59.02992484 97.68636197 58.11792985 99.84578404 56.375 102.125 C54.70431817 104.0156801 54.70431817 104.0156801 55 107 C54.34 107 53.68 107 53 107 C53 107.66 53 108.32 53 109 C53.99 109 54.98 109 56 109 C55.505 110.485 55.505 110.485 55 112 C55.66 112 56.32 112 57 112 C56.505 113.485 56.505 113.485 56 115 C57.32 115 58.64 115 60 115 C60.33 115.66 60.66 116.32 61 117 C61.66 116.67 62.32 116.34 63 116 C63 116.66 63 117.32 63 118 C63.66 118 64.32 118 65 118 C65 117.34 65 116.68 65 116 C65.66 116 66.32 116 67 116 C67 116.66 67 117.32 67 118 C67.66 118 68.32 118 69 118 C69 117.01 69 116.02 69 115 C69.99 115 70.98 115 72 115 C72 114.34 72 113.68 72 113 C72.66 113 73.32 113 74 113 C73.67 111.68 73.34 110.36 73 109 C73.66 109 74.32 109 75 109 C75 108.34 75 107.68 75 107 C74.34 107 73.68 107 73 107 C72.9175 106.05125 72.835 105.1025 72.75 104.125 C72.34925077 100.89538209 72.34925077 100.89538209 69.9375 99.625 C69.298125 99.41875 68.65875 99.2125 68 99 C68.495 97.515 68.495 97.515 69 96 C71.3125 96.1875 71.3125 96.1875 74 97 C75.8125 99.5625 75.8125 99.5625 77 102 C87.88729231 97.71564886 97.97431588 90.97843618 103 80 C102.94199219 80.75925781 102.88398437 81.51851563 102.82421875 82.30078125 C102.68960986 85.26602282 102.64822368 88.051159 103 91 C105.07428413 93.44638833 105.07428413 93.44638833 108 94 C110.12893805 93.58789809 110.12893805 93.58789809 112 93 C112.03738281 92.443125 112.07476562 91.88625 112.11328125 91.3125 C112.46517358 87.22778906 112.98265045 83.67558146 114.5625 79.875 C116.08690803 76.15693164 116.32324724 73.04059047 116 69 C115.67 68.34 115.34 67.68 115 67 C115.66 67 116.32 67 117 67 C117 65.35 117 63.7 117 62 C116.34 62 115.68 62 115 62 C115.33 61.01 115.66 60.02 116 59 C115.34 59 114.68 59 114 59 C113.67 58.01 113.34 57.02 113 56 C112.01 56.495 112.01 56.495 111 57 C110.67 56.34 110.34 55.68 110 55 C109.01 55.495 109.01 55.495 108 56 C107.67 55.34 107.34 54.68 107 54 C106.01 54 105.02 54 104 54 C104.165 54.78375 104.33 55.5675 104.5 56.375 C106.14285714 68.28571429 106.14285714 68.28571429 103 73 C101.02 72.01 101.02 72.01 99 71 C98.89184775 69.23050905 98.81433917 67.45912513 98.75 65.6875 C98.70359375 64.70136719 98.6571875 63.71523438 98.609375 62.69921875 C99 60 99 60 100.9765625 58.3046875 C101.64429687 57.87414063 102.31203125 57.44359375 103 57 C104.08582478 52.54811839 102.51281862 49.78090925 100.3125 46 C94.16860835 36.47768069 87.228316 29.95482 76 27 C75.5875 27.969375 75.175 28.93875 74.75 29.9375 C73 33 73 33 70.8125 33.875 C70.214375 33.91625 69.61625 33.9575 69 34 C70.04166667 32.2421875 71.08333333 30.484375 72.125 28.7265625 C73.15068348 27.02527333 73.15068348 27.02527333 73 25 C73.66 25 74.32 25 75 25 C75 24.34 75 23.68 75 23 C74.34 23 73.68 23 73 23 C73 22.34 73 21.68 73 21 C73.66 21 74.32 21 75 21 C75 20.34 75 19.68 75 19 C74.01 19 73.02 19 72 19 C72.33 17.68 72.66 16.36 73 15 C71.68 15 70.36 15 69 15 C69 14.01 69 13.02 69 12 C60.02916976 11.59479311 52.54285989 11.37249204 44.234375 15.3203125 C42 16 42 16 39.703125 15.1171875 C39.14109375 14.74851562 38.5790625 14.37984375 38 14 C39.9151579 13.18395001 41.83218834 12.37229368 43.75 11.5625 C44.81734375 11.11003906 45.8846875 10.65757813 46.984375 10.19140625 C59.09914084 5.40513218 74.27024744 6.95950392 86 12 C102.30706848 19.2598451 111.50951805 31.0948611 118.0546875 47.37109375 C122.99938971 61.12226972 120.06561683 77.17955485 114.3125 90.25 C112.44734714 93.7170785 109.89150073 96.47899442 107.3125 99.4375 C103.08266101 104.43260591 101.68842377 107.45689911 102 114 C102.66 114.66 103.32 115.32 104 116 C104.33 115.67 104.66 115.34 105 115 C105.99 116.65 106.98 118.3 108 120 C108.99 119.67 109.98 119.34 111 119 C114.1875 119.9375 114.1875 119.9375 117 121 C117.99 119.515 117.99 119.515 119 118 C121.86724686 118.57344937 122.8614515 118.8614515 125 121 C125.66 122.32 126.32 123.64 127 125 C127 85.07 127 45.14 127 4 C123.75150023 5.72226496 123.75150023 5.72226496 123 9 C121.35 9.33 119.7 9.66 118 10 C118.33 8.35 118.66 6.7 119 5 C119.99 4.67 120.98 4.34 122 4 C122 3.34 122 2.68 122 2 C122.99 1.67 123.98 1.34 125 1 C108.98006463 0.97667084 92.96013474 0.95902074 76.9401865 0.94818783 C69.5023549 0.94302491 62.06453383 0.93598229 54.62670898 0.92456055 C48.14618658 0.91461359 41.66567181 0.90814654 35.18514198 0.90591151 C31.75169458 0.90460442 28.318269 0.9015187 24.88482857 0.89426994 C21.05806179 0.88625584 17.23131665 0.88600887 13.40454102 0.88647461 C12.25799545 0.88287933 11.11144989 0.87928406 9.93016052 0.87557983 C8.89384491 0.8769545 7.8575293 0.87832916 6.78981018 0.87974548 C5.88368768 0.87882369 4.97756517 0.8779019 4.04398441 0.87695217 C2.00604565 0.77284166 2.00604565 0.77284166 1 2 Z " fill="#091725" transform="translate(0,0)"/>
<path d="M0 0 C0.9061225 0.00092179 1.81224501 0.00184359 2.74582577 0.00279331 C3.78214138 0.00141865 4.81845699 0.00004398 5.88617611 -0.00137234 C7.60599445 0.00402058 7.60599445 0.00402058 9.3605566 0.00952244 C10.56039181 0.00937641 11.76022701 0.00923038 12.99642086 0.00907993 C16.29586749 0.00965889 19.59525222 0.01468805 22.89468789 0.02165389 C26.33935856 0.0278881 29.78402997 0.02849128 33.22870541 0.0296793 C39.75584288 0.03279242 46.28296369 0.04100554 52.81009382 0.05102879 C60.23923575 0.06219053 67.66837845 0.06770053 75.09752667 0.07272422 C90.38369931 0.08318817 105.6698553 0.10078723 120.95601559 0.12304783 C119.96601559 0.45304783 118.97601559 0.78304783 117.95601559 1.12304783 C117.95601559 1.78304783 117.95601559 2.44304783 117.95601559 3.12304783 C116.96601559 3.45304783 115.97601559 3.78304783 114.95601559 4.12304783 C114.62601559 5.77304783 114.29601559 7.42304783 113.95601559 9.12304783 C116.36478816 9.00963248 116.36478816 9.00963248 118.95601559 8.12304783 C120.72749931 5.64371586 120.72749931 5.64371586 121.95601559 3.12304783 C122.28601559 3.12304783 122.61601559 3.12304783 122.95601559 3.12304783 C122.95601559 43.05304783 122.95601559 82.98304783 122.95601559 124.12304783 C121.23555053 121.82909442 119.54658609 119.50890359 117.95601559 117.12304783 C115.08876872 117.6964972 114.09456408 117.98449933 111.95601559 120.12304783 C111.02789059 119.79304783 110.09976559 119.46304783 109.14351559 119.12304783 C106.03572268 117.97337779 106.03572268 117.97337779 102.95601559 118.12304783 C102.29601559 116.80304783 101.63601559 115.48304783 100.95601559 114.12304783 C99.96601559 114.12304783 98.97601559 114.12304783 97.95601559 114.12304783 C97.50899593 106.52371361 99.96000783 103.15742241 104.83101559 97.62304783 C109.43090286 91.94928982 111.78369503 86.04457121 113.95601559 79.12304783 C114.20222652 78.38699314 114.44843746 77.65093845 114.70210934 76.89257908 C118.74401727 62.48108664 115.79433964 48.45018796 109.20601559 35.43554783 C100.90950773 21.02036542 87.56311771 11.85256917 71.60445309 7.47851658 C60.14039167 5.93982987 48.54303184 6.18959018 37.95601559 11.12304783 C37.0137109 11.55875095 36.07140621 11.99445408 35.10054684 12.44336033 C20.55911256 19.78427749 12.4975345 30.78857738 6.21773434 45.53320408 C4.95601559 48.12304783 4.95601559 48.12304783 2.95601559 49.12304783 C0.94551172 52.30504802 0.52027139 55.27785973 0.10445309 58.98242283 C-0.02445316 60.09746189 -0.15335941 61.21250095 -0.28617191 62.36132908 C-0.41250004 63.52019627 -0.53882816 64.67906345 -0.66898441 65.87304783 C-0.80304691 67.04738377 -0.93710941 68.2217197 -1.07523441 69.43164158 C-1.40491074 72.32808357 -1.72756003 75.22513318 -2.04398441 78.12304783 C-2.37398441 78.12304783 -2.70398441 78.12304783 -3.04398441 78.12304783 C-3.06710851 68.10077019 -3.08489984 58.07849886 -3.09579659 48.05620003 C-3.10102527 43.40293596 -3.10812264 38.74969009 -3.11942387 34.0964365 C-3.13025328 29.60960237 -3.13626136 25.12278578 -3.13886166 20.6359396 C-3.14071581 18.9202449 -3.14433624 17.20455121 -3.14971447 15.48886395 C-3.15692563 13.0941987 -3.15797533 10.69960687 -3.1575098 8.30493259 C-3.16110508 7.588521 -3.16470036 6.87210941 -3.16840458 6.13398838 C-3.15581955 0.18998029 -3.15581955 0.18998029 0 0 Z " fill="#F1F3F3" transform="translate(4.043984413146973,0.8769521713256836)"/>
<path d="M0 0 C42.24 0 84.48 0 128 0 C128 42.24 128 84.48 128 128 C85.76 128 43.52 128 0 128 C0 85.76 0 43.52 0 0 Z M1 2 C0.90503292 4.40348286 0.87441138 6.77810982 0.88647461 9.18188477 C0.88632858 9.93305573 0.88618256 10.68422668 0.8860321 11.4581604 C0.88673137 13.95260459 0.89452436 16.44697503 0.90234375 18.94140625 C0.90420788 20.66633564 0.90563181 22.39126557 0.90663147 24.11619568 C0.91045703 28.66512503 0.92028762 33.21402267 0.93133545 37.76293945 C0.94154876 42.40120006 0.94612892 47.03946577 0.95117188 51.67773438 C0.96190986 60.78517022 0.97898673 69.89258248 1 79 C1.33 79 1.66 79 2 79 C2.07516846 78.26362305 2.15033691 77.52724609 2.2277832 76.76855469 C2.57626854 73.42752065 2.94415804 70.08890072 3.3125 66.75 C3.43044922 65.59113281 3.54839844 64.43226562 3.66992188 63.23828125 C3.79560547 62.12324219 3.92128906 61.00820313 4.05078125 59.859375 C4.16075439 58.83295898 4.27072754 57.80654297 4.3840332 56.74902344 C5.04592027 53.79506054 6.01613388 52.24979361 8 50 C7.84015625 50.65742187 7.6803125 51.31484375 7.515625 51.9921875 C5.07274829 66.24230166 7.74519058 79.14112785 14 92 C14.433125 91.505 14.86625 91.01 15.3125 90.5 C17 89 17 89 20 89 C20 90.32 20 91.64 20 93 C18.02 93.99 18.02 93.99 16 95 C20.42713797 101.60471397 25.71352231 107.11554252 32 112 C32.66 112 33.32 112 34 112 C34.66 110.68 35.32 109.36 36 108 C36.99 108 37.98 108 39 108 C39 109.32 39 110.64 39 112 C37.02 112.99 37.02 112.99 35 114 C36.47190305 114.80509102 37.95307067 115.59324574 39.4375 116.375 C40.67306641 117.03628906 40.67306641 117.03628906 41.93359375 117.7109375 C54.68537586 123.07155928 71.27619346 122.94487589 84.1640625 118.2734375 C90.68504906 115.345281 96.59064896 111.68810423 102 107 C102 109.64 102 112.28 102 115 C102.99 115 103.98 115 105 115 C106.6875 117.5 106.6875 117.5 108 120 C108.99 119.67 109.98 119.34 111 119 C114.1875 119.9375 114.1875 119.9375 117 121 C117.99 119.515 117.99 119.515 119 118 C121.86724686 118.57344937 122.8614515 118.8614515 125 121 C125.66 122.32 126.32 123.64 127 125 C127 85.07 127 45.14 127 4 C123.75150023 5.72226496 123.75150023 5.72226496 123 9 C121.35 9.33 119.7 9.66 118 10 C118.33 8.35 118.66 6.7 119 5 C119.99 4.67 120.98 4.34 122 4 C122 3.34 122 2.68 122 2 C122.99 1.67 123.98 1.34 125 1 C108.98006463 0.97667084 92.96013474 0.95902074 76.9401865 0.94818783 C69.5023549 0.94302491 62.06453383 0.93598229 54.62670898 0.92456055 C48.14618658 0.91461359 41.66567181 0.90814654 35.18514198 0.90591151 C31.75169458 0.90460442 28.318269 0.9015187 24.88482857 0.89426994 C21.05806179 0.88625584 17.23131665 0.88600887 13.40454102 0.88647461 C12.25799545 0.88287933 11.11144989 0.87928406 9.93016052 0.87557983 C8.89384491 0.8769545 7.8575293 0.87832916 6.78981018 0.87974548 C5.88368768 0.87882369 4.97756517 0.8779019 4.04398441 0.87695217 C2.00604565 0.77284166 2.00604565 0.77284166 1 2 Z " fill="#84919B" transform="translate(0,0)"/>
<path d="M0 0 C0 0.99 0 1.98 0 3 C1.32 3 2.64 3 4 3 C3.67 4.32 3.34 5.64 3 7 C3.99 7 4.98 7 6 7 C6 7.66 6 8.32 6 9 C5.34 9 4.68 9 4 9 C4 9.66 4 10.32 4 11 C4.66 11 5.32 11 6 11 C6 11.66 6 12.32 6 13 C5.34 13 4.68 13 4 13 C3.566875 14.11375 3.566875 14.11375 3.125 15.25 C2.17697356 17.56739797 1.15154089 19.77917115 0 22 C2.47627099 21.36078035 2.47627099 21.36078035 5 20 C6.36078035 17.47627099 6.36078035 17.47627099 7 15 C19.19524924 18.20927612 26.56106945 25.78673786 33 36.25 C34.16272567 39.44749559 34.52430104 41.62949329 34 45 C33.33613281 45.43570313 32.67226562 45.87140625 31.98828125 46.3203125 C29.71489676 47.86401281 29.71489676 47.86401281 29.609375 50.69921875 C29.65578125 51.68535156 29.7021875 52.67148438 29.75 53.6875 C29.80414063 55.17830078 29.80414063 55.17830078 29.859375 56.69921875 C29.90578125 57.45847656 29.9521875 58.21773437 30 59 C31.65 59.66 33.3 60.32 35 61 C37.0095763 54.97127109 36.29479052 48.15025498 35 42 C36.32 42 37.64 42 39 42 C39 42.66 39 43.32 39 44 C39.99 43.67 40.98 43.34 42 43 C42 43.66 42 44.32 42 45 C42.99 44.67 43.98 44.34 45 44 C45 44.99 45 45.98 45 47 C45.66 47.33 46.32 47.66 47 48 C46.505 48.99 46.505 48.99 46 50 C46.66 50 47.32 50 48 50 C48 51.65 48 53.3 48 55 C47.34 55 46.68 55 46 55 C46.185625 55.70125 46.37125 56.4025 46.5625 57.125 C47.46368024 63.04704155 45.32492334 68.65464524 43.71875 74.31640625 C43.03607043 76.865324 42.48756444 79.40746984 42 82 C38.92463146 81.34099246 36.92264434 80.46132217 34 79 C34 75.37 34 71.74 34 68 C33.34 68.99 32.68 69.98 32 71 C30.515 70.505 30.515 70.505 29 70 C29.33 68.35 29.66 66.7 30 65 C27.58380177 64.74969023 27.58380177 64.74969023 25 65 C24.34 65.99 23.68 66.98 23 68 C22.20046862 64.71303767 21.90341064 63.28976808 23 60 C23.12248619 57.36227423 23.18512384 54.76254205 23.1875 52.125 C23.20586914 51.06345703 23.20586914 51.06345703 23.22460938 49.98046875 C23.23626403 45.80810294 22.67099455 42.79111016 21 39 C21 37.68 21 36.36 21 35 C22.98 34.34 24.96 33.68 27 33 C25.4169423 28.7257442 22.49431596 26.73468206 19 24 C17.02 24.99 17.02 24.99 15 26 C15 26.99 15 27.98 15 29 C15.66 29 16.32 29 17 29 C16.505 30.485 16.505 30.485 16 32 C15.34773438 31.59007813 14.69546875 31.18015625 14.0234375 30.7578125 C2.95136189 23.93166559 -5.29633322 23.11797529 -18 25 C-18.99 23.35 -19.98 21.7 -21 20 C-22.65 20.33 -24.3 20.66 -26 21 C-26 23.46278801 -25.14547137 24.85224119 -24 27 C-27.465 25.02 -27.465 25.02 -31 23 C-26.950809 18.16709462 -23.03280791 16.6166348 -17 15 C-16.01 16.98 -15.02 18.96 -14 21 C-13.01 21 -12.02 21 -11 21 C-11.4640625 20.13375 -11.4640625 20.13375 -11.9375 19.25 C-13 17 -13 17 -13.5 14.8125 C-13.7475 13.9153125 -13.7475 13.9153125 -14 13 C-14.66 12.67 -15.32 12.34 -16 12 C-15.67 11.01 -15.34 10.02 -15 9 C-16.32 9 -17.64 9 -19 9 C-19.33 9.99 -19.66 10.98 -20 12 C-21.3921875 11.505 -21.3921875 11.505 -22.8125 11 C-25.92029291 9.85032996 -25.92029291 9.85032996 -29 10 C-30.68236471 9.37400383 -32.3523962 8.71247732 -34 8 C-33.67 6.35 -33.34 4.7 -33 3 C-31.8553125 3.37125 -31.8553125 3.37125 -30.6875 3.75 C-26.8355402 4.01114982 -25.56438314 3.54096786 -22.125 2.0625 C-14.8547862 -0.86368564 -7.69109511 -0.34740204 0 0 Z M26 71 C29 72 29 72 29 72 Z " fill="#D2D7DA" transform="translate(69,12)"/>
<path d="M0 0 C0.66 0.33 1.32 0.66 2 1 C2 2.32 2 3.64 2 5 C6.23735537 6.67523352 8.60153594 6.97743646 13 6 C13.66 6.66 14.32 7.32 15 8 C15.33 7.34 15.66 6.68 16 6 C17.32 6 18.64 6 20 6 C20.0825 6.53625 20.165 7.0725 20.25 7.625 C20.95043816 10.25137686 20.95043816 10.25137686 23.125 13.0625 C24.053125 14.5165625 24.053125 14.5165625 25 16 C24.505 17.485 24.505 17.485 24 19 C22.125 18.6875 22.125 18.6875 20 18 C18 15 18 15 18 12 C14.04 13.98 10.08 15.96 6 18 C6 18.66 6 19.32 6 20 C7.32 20.66 8.64 21.32 10 22 C9.01 21.01 8.02 20.02 7 19 C10.38041002 15.98177677 10.38041002 15.98177677 13.125 16.0625 C15.56567641 17.2828382 15.95265539 18.53125913 17 21 C17.66 21.66 18.32 22.32 19 23 C18.12988281 23.51046875 18.12988281 23.51046875 17.2421875 24.03125 C9.99186093 28.52980246 4.67277889 33.72768887 2 42 C1.07576906 50.80168764 1.93503683 58.12413386 6 66 C4.02 66.99 2.04 67.98 0 69 C0 68.34 0 67.68 0 67 C-1.11375 66.896875 -2.2275 66.79375 -3.375 66.6875 C-4.57125 66.460625 -5.7675 66.23375 -7 66 C-9.1519437 62.77208445 -9.20086443 61.71599191 -9 58 C-7.68 57.34 -6.36 56.68 -5 56 C-5 52.04 -5 48.08 -5 44 C-6.32 43.67 -7.64 43.34 -9 43 C-8.86339106 34.6668545 -5.793154 29.69539788 -1 23 C-1.66 23 -2.32 23 -3 23 C-3.26425781 23.56976563 -3.52851563 24.13953125 -3.80078125 24.7265625 C-5.48709718 27.92342202 -7.68182253 30.70471089 -9.85546875 33.5859375 C-11.39167542 36.82612767 -10.72039869 38.50565232 -10 42 C-9.86498161 45.12551719 -9.9050749 48.24722517 -9.9375 51.375 C-9.94201172 52.20644531 -9.94652344 53.03789063 -9.95117188 53.89453125 C-9.96286836 55.92971897 -9.98080065 57.96486923 -10 60 C-10.33 59.34 -10.66 58.68 -11 58 C-11.66 58 -12.32 58 -13 58 C-13.33 58.66 -13.66 59.32 -14 60 C-14 59.34 -14 58.68 -14 58 C-15.485 58.495 -15.485 58.495 -17 59 C-17 58.34 -17 57.68 -17 57 C-18.485 57.495 -18.485 57.495 -20 58 C-20 57.34 -20 56.68 -20 56 C-20.66 55.34 -21.32 54.68 -22 54 C-21.67 53.34 -21.34 52.68 -21 52 C-21.66 52 -22.32 52 -23 52 C-23.042721 50.33388095 -23.04063832 48.66617115 -23 47 C-22.505 46.505 -22.505 46.505 -22 46 C-22.061875 44.700625 -22.12375 43.40125 -22.1875 42.0625 C-22.27348973 37.17671998 -20.88731637 33.56600455 -18.875 29.1640625 C-17.81257481 26.92550145 -17.81257481 26.92550145 -18 24 C-17.8125 21.4375 -17.8125 21.4375 -17 19 C-15.34302621 18.30959426 -13.6744239 17.6469365 -12 17 C-10.74631528 15.55344071 -9.49626352 14.10059099 -8.3359375 12.578125 C-6.92277004 10.90876928 -5.44032533 9.73771785 -3.6875 8.4375 C-0.72659589 6.29094139 -0.72659589 6.29094139 -0.6875 3.25 C-0.790625 2.5075 -0.89375 1.765 -1 1 C-0.67 0.67 -0.34 0.34 0 0 Z " fill="#58626B" transform="translate(34,15)"/>
<path d="M0 0 C0.28875 1.0725 0.5775 2.145 0.875 3.25 C2.26852722 7.89509072 4.28809476 9.40052287 7.9765625 12.36328125 C10 14 10 14 12.6875 16.8125 C15.05725997 19.05416483 16.91314387 20.02984522 20 21 C19.62875 22.2375 19.62875 22.2375 19.25 23.5 C18.95120175 27.68317554 19.97276458 29.41493474 21.94140625 32.984375 C24.2954873 37.4666843 25.30510606 41.96575006 25 47 C24.01 47.495 24.01 47.495 23 48 C22.835 47.21625 22.67 46.4325 22.5 45.625 C21.29603101 42.8906529 21.29603101 42.8906529 19.0859375 42.22265625 C17.07483301 41.73586948 15.037362 41.36146745 13 41 C13.165 41.61875 13.33 42.2375 13.5 42.875 C14.48061005 49.00381281 15.00053906 55.37398926 12 61 C11.67 60.34 11.34 59.68 11 59 C9.67696283 58.6278958 8.34262065 58.29369827 7 58 C5.26780072 56.26780072 5.78708239 53.97973192 5.75 51.625 C5.72421875 50.64789063 5.6984375 49.67078125 5.671875 48.6640625 C6 46 6 46 7.390625 44.1484375 C9 43 9 43 11 43 C9.25664313 33.41153722 4.12837846 25.37013267 -3.87890625 19.66015625 C-7.78146277 17.1053517 -11.46659805 15.24668554 -16 14 C-16.226875 14.804375 -16.45375 15.60875 -16.6875 16.4375 C-17.120625 17.283125 -17.55375 18.12875 -18 19 C-20.625 19.8125 -20.625 19.8125 -23 20 C-22.35494404 16.51669784 -21.01782732 13.90567134 -19 11 C-18.34 11 -17.68 11 -17 11 C-17 10.34 -17 9.68 -17 9 C-17.66 9 -18.32 9 -19 9 C-19 8.34 -19 7.68 -19 7 C-18.34 7 -17.68 7 -17 7 C-17 6.34 -17 5.68 -17 5 C-17.99 5 -18.98 5 -20 5 C-19.67 3.68 -19.34 2.36 -19 1 C-20.32 1 -21.64 1 -23 1 C-23 0.01 -23 -0.98 -23 -2 C-23.78375 -1.835 -24.5675 -1.67 -25.375 -1.5 C-28.35011101 -1.08963986 -30.72687292 -1.0505651 -33.6875 -1.1875 C-37.87444433 -1.26959695 -40.87779508 -0.4502235 -44.75 1.125 C-48.50650507 2.64891553 -49.5902143 3.08334624 -53.6875 2.25 C-54.450625 1.8375 -55.21375 1.425 -56 1 C-53.13661157 -1.31987488 -50.43212933 -2.79609627 -47 -4.125 C-46.154375 -4.45757812 -45.30875 -4.79015625 -44.4375 -5.1328125 C-30.15660331 -10.21351613 -12.89766676 -7.48475307 0 0 Z " fill="#4B555E" transform="translate(92,14)"/>
<path d="M0 0 C1.2065625 0.0309375 1.2065625 0.0309375 2.4375 0.0625 C2.81968767 1.71864657 3.15145102 3.38707024 3.4375 5.0625 C3.1075 5.3925 2.7775 5.7225 2.4375 6.0625 C3.0975 6.7225 3.7575 7.3825 4.4375 8.0625 C-2.32433524 16.15112561 -9.03445857 23.3630022 -19.5625 26.0625 C-20.14 25.0725 -20.7175 24.0825 -21.3125 23.0625 C-22.055 22.0725 -22.7975 21.0825 -23.5625 20.0625 C-24.8825 20.0625 -26.2025 20.0625 -27.5625 20.0625 C-27.8925 21.0525 -28.2225 22.0425 -28.5625 23.0625 C-27.6034375 23.371875 -27.6034375 23.371875 -26.625 23.6875 C-24.5625 25.0625 -24.5625 25.0625 -23.8125 28.1875 C-23.73 29.13625 -23.6475 30.085 -23.5625 31.0625 C-22.9025 31.0625 -22.2425 31.0625 -21.5625 31.0625 C-21.5625 31.7225 -21.5625 32.3825 -21.5625 33.0625 C-22.2225 33.0625 -22.8825 33.0625 -23.5625 33.0625 C-23.0675 35.0425 -23.0675 35.0425 -22.5625 37.0625 C-23.2225 37.0625 -23.8825 37.0625 -24.5625 37.0625 C-24.5625 37.7225 -24.5625 38.3825 -24.5625 39.0625 C-25.5525 39.0625 -26.5425 39.0625 -27.5625 39.0625 C-27.5625 40.0525 -27.5625 41.0425 -27.5625 42.0625 C-28.2225 42.0625 -28.8825 42.0625 -29.5625 42.0625 C-29.5625 41.4025 -29.5625 40.7425 -29.5625 40.0625 C-30.2225 40.0625 -30.8825 40.0625 -31.5625 40.0625 C-31.5625 40.7225 -31.5625 41.3825 -31.5625 42.0625 C-32.2225 42.0625 -32.8825 42.0625 -33.5625 42.0625 C-33.5625 41.4025 -33.5625 40.7425 -33.5625 40.0625 C-35.0475 40.5575 -35.0475 40.5575 -36.5625 41.0625 C-36.5625 40.4025 -36.5625 39.7425 -36.5625 39.0625 C-37.8825 38.7325 -39.2025 38.4025 -40.5625 38.0625 C-40.2325 37.4025 -39.9025 36.7425 -39.5625 36.0625 C-40.2225 35.7325 -40.8825 35.4025 -41.5625 35.0625 C-41.2325 34.4025 -40.9025 33.7425 -40.5625 33.0625 C-41.5525 33.0625 -42.5425 33.0625 -43.5625 33.0625 C-43.5625 32.4025 -43.5625 31.7425 -43.5625 31.0625 C-42.9025 31.0625 -42.2425 31.0625 -41.5625 31.0625 C-41.459375 30.299375 -41.35625 29.53625 -41.25 28.75 C-40.49450845 25.79671485 -39.69257477 25.10382166 -37.5625 23.0625 C-36.84802357 20.95917109 -36.84802357 20.95917109 -36.5625 19.0625 C-37.47 19.3925 -38.3775 19.7225 -39.3125 20.0625 C-42.5625 21.0625 -42.5625 21.0625 -46.5625 21.0625 C-46.2325 19.0825 -45.9025 17.1025 -45.5625 15.0625 C-49.50977588 14.88307837 -52.1605513 14.96899311 -55.5625 17.0625 C-55.211875 16.299375 -54.86125 15.53625 -54.5 14.75 C-53.23889116 12.01490621 -53.23889116 12.01490621 -54.5625 9.0625 C-55.2225 9.0625 -55.8825 9.0625 -56.5625 9.0625 C-56.2325 8.0725 -55.9025 7.0825 -55.5625 6.0625 C-54.70978516 6.76826172 -54.70978516 6.76826172 -53.83984375 7.48828125 C-45.78527647 13.98303249 -39.71755949 16.78531556 -29.20703125 16.5390625 C-21.57508524 15.54110171 -14.99367196 12.13808943 -9.9375 6.3125 C-9.13710233 5.23560131 -8.34398273 4.15320251 -7.5625 3.0625 C-6.9025 2.4025 -6.2425 1.7425 -5.5625 1.0625 C-4.9025 1.0625 -4.2425 1.0625 -3.5625 1.0625 C-2.5625 0.0625 -2.5625 0.0625 0 0 Z " fill="#77828C" transform="translate(96.5625,75.9375)"/>
<path d="M0 0 C2.31 0.33 4.62 0.66 7 1 C7 1.99 7 2.98 7 4 C7.66 4.33 8.32 4.66 9 5 C11 6 11 6 13 7 C13 7.99 13 8.98 13 10 C13.804375 10.12375 14.60875 10.2475 15.4375 10.375 C16.283125 10.58125 17.12875 10.7875 18 11 C18.33 11.66 18.66 12.32 19 13 C19.98020375 14.0194119 20.97803008 15.02246356 22 16 C21.154375 16.61875 20.30875 17.2375 19.4375 17.875 C12.02789038 24.11650646 7.99123956 32.65344574 4.26171875 41.41015625 C3 44 3 44 1 45 C-1.01050386 48.18200019 -1.43574419 51.1548119 -1.8515625 54.859375 C-1.98046875 55.97441406 -2.109375 57.08945312 -2.2421875 58.23828125 C-2.36851563 59.39714844 -2.49484375 60.55601563 -2.625 61.75 C-2.82609375 63.51150391 -2.82609375 63.51150391 -3.03125 65.30859375 C-3.36092632 68.20503574 -3.68357562 71.10208535 -4 74 C-4.33 74 -4.66 74 -5 74 C-5.02322795 65.90671877 -5.04096821 57.81345161 -5.05181217 49.72014523 C-5.05701819 45.96161148 -5.0640742 42.20310064 -5.07543945 38.44458008 C-5.08634967 34.81358682 -5.092294 31.18261552 -5.09487724 27.55160713 C-5.09671688 26.17021909 -5.10030912 24.78883217 -5.10573006 23.40745354 C-5.11304849 21.46427469 -5.11340898 19.52107349 -5.11352539 17.57788086 C-5.115746 16.47423691 -5.11796661 15.37059296 -5.12025452 14.23350525 C-4.99128109 10.76555843 -4.54653225 7.4249501 -4 4 C-3.34 4 -2.68 4 -2 4 C-1.34 2.68 -0.68 1.36 0 0 Z " fill="#DBDFE2" transform="translate(6,5)"/>
<path d="M0 0 C10.55783161 3.52562969 18.03028536 13.46177164 23 23 C31.04571891 40.28572422 30.57959856 55.55878538 24.16015625 73.32421875 C19.50804094 83.89331021 10.27223679 92.46383308 1 99 C-0.485 99.495 -0.485 99.495 -2 100 C-4 97 -4 97 -3.75 94.5 C-3 92 -3 92 -1 89 C-1.57920507 85.84569108 -1.57920507 85.84569108 -3 83 C-3.99 82.67 -4.98 82.34 -6 82 C-5.49210937 81.64808594 -4.98421875 81.29617187 -4.4609375 80.93359375 C2.09592999 76.23082175 7.11245384 71.12716796 11 64 C11.96070434 66.88211302 12.10581883 68.69850044 12.0625 71.6875 C12.05347656 72.49574219 12.04445313 73.30398437 12.03515625 74.13671875 C12.02355469 74.75160156 12.01195313 75.36648437 12 76 C12.99 75.505 12.99 75.505 14 75 C14.66 75.99 15.32 76.98 16 78 C16.99 78 17.98 78 19 78 C19.03738281 77.443125 19.07476562 76.88625 19.11328125 76.3125 C19.46249356 72.25889831 19.95697504 68.75632256 21.5625 65 C23.36547756 60.65885016 23.28980831 56.636933 23 52 C23.66 52 24.32 52 25 52 C24.855625 51.195625 24.71125 50.39125 24.5625 49.5625 C24.26834818 47.69953847 23.98771975 45.83033867 23.8515625 43.94921875 C23.39929514 37.88668248 21.9395075 32.36206713 19 27 C18.01 26.34 17.02 25.68 16 25 C16.99 24.67 17.98 24.34 19 24 C19 22.68 19 21.36 19 20 C18.28070313 19.773125 17.56140625 19.54625 16.8203125 19.3125 C13.40742531 17.72423117 11.46258609 15.72210891 8.875 13 C6.29959908 10.30717958 4.10536365 8.07024243 1 6 C0.3125 2.875 0.3125 2.875 0 0 Z " fill="#101E2B" transform="translate(92,15)"/>
<path d="M0 0 C0.99 0 1.98 0 3 0 C3.66 0.66 4.32 1.32 5 2 C5.33 2 5.66 2 6 2 C6.8937457 13.68821891 7.12535693 25.28252015 7.0625 37 C7.05746627 38.66145696 7.05290673 40.32291542 7.04882812 41.984375 C7.03799087 45.98962171 7.02083374 49.99479334 7 54 C5.25728062 51.702779 3.60088848 49.40133271 2 47 C-0.86724686 47.57344937 -1.8614515 47.8614515 -4 50 C-4.928125 49.67 -5.85625 49.34 -6.8125 49 C-9.92029291 47.85032996 -9.92029291 47.85032996 -13 48 C-13.66 46.68 -14.32 45.36 -15 44 C-15.99 44 -16.98 44 -18 44 C-18.44701966 36.40066578 -15.99600776 33.03437458 -11.125 27.5 C-4.63752807 19.49798958 -1.86416979 9.99872886 0 0 Z " fill="#B5BDC3" transform="translate(120,71)"/>
<path d="M0 0 C1.67542976 0.28604898 3.34385343 0.61781233 5 1 C5.33 3.64 5.66 6.28 6 9 C7.65 9.33 9.3 9.66 11 10 C11 10.66 11 11.32 11 12 C11.598125 12.2475 12.19625 12.495 12.8125 12.75 C16.03969378 14.59411073 17.60411758 16.70438482 18.6875 20.25 C18.790625 20.8275 18.89375 21.405 19 22 C21.64 22.33 24.28 22.66 27 23 C27.38218767 24.65614657 27.71395102 26.32457024 28 28 C27 29 27 29 24.93359375 29.09765625 C24.10988281 29.08605469 23.28617188 29.07445313 22.4375 29.0625 C21.61121094 29.05347656 20.78492187 29.04445313 19.93359375 29.03515625 C18.97646484 29.01775391 18.97646484 29.01775391 18 29 C17.9175 29.721875 17.835 30.44375 17.75 31.1875 C16.65128837 35.30766863 14.59566818 38.03292837 10.9375 40.25 C9.3090948 40.8803504 7.65654479 41.4478184 6 42 C5.67 44.64 5.34 47.28 5 50 C2.525 50.495 2.525 50.495 0 51 C-0.09796875 50.37351563 -0.1959375 49.74703125 -0.296875 49.1015625 C-0.44640625 48.28429687 -0.5959375 47.46703125 -0.75 46.625 C-0.88921875 45.81289062 -1.0284375 45.00078125 -1.171875 44.1640625 C-1.81749261 41.82290908 -1.81749261 41.82290908 -4.078125 40.7109375 C-4.71234375 40.47632813 -5.3465625 40.24171875 -6 40 C-5.67 39.01 -5.34 38.02 -5 37 C-3.80503906 37.08701172 -3.80503906 37.08701172 -2.5859375 37.17578125 C4.6022161 37.67522979 4.6022161 37.67522979 10.75 34.5 C11.4925 33.675 12.235 32.85 13 32 C12.50243908 29.24358584 12.50243908 29.24358584 11 27 C10.38125 27.804375 9.7625 28.60875 9.125 29.4375 C6.65937343 32.41075556 5.95666113 32.87244518 2.1875 33.375 C-1 33 -1 33 -3.875 30.875 C-6 28 -6 28 -6.6875 25 C-5.69618059 20.67424258 -3.50545955 19.62909466 0 17 C0 16.34 0 15.68 0 15 C-1.98 14.34 -3.96 13.68 -6 13 C-5.67 12.01 -5.34 11.02 -5 10 C-2.9375 9.3125 -2.9375 9.3125 -1 9 C-1.020625 7.700625 -1.04125 6.40125 -1.0625 5.0625 C-1.08399454 3.70834367 -1.07148199 2.35243917 -1 1 C-0.67 0.67 -0.34 0.34 0 0 Z " fill="#303C47" transform="translate(62,39)"/>
<path d="M0 0 C42.24 0 84.48 0 128 0 C128 42.24 128 84.48 128 128 C85.76 128 43.52 128 0 128 C0 85.76 0 43.52 0 0 Z M1 2 C0.90182792 3.60457191 0.87368079 5.21347274 0.87301636 6.82104492 C0.87019653 7.86432953 0.86737671 8.90761414 0.86447144 9.98251343 C0.86649567 11.13683868 0.8685199 12.29116394 0.87060547 13.48046875 C0.86885315 14.68845123 0.86710083 15.89643372 0.86529541 17.14102173 C0.86163722 20.46325954 0.86251032 23.78543543 0.8656745 27.10766983 C0.86819848 30.57723324 0.86586045 34.04679392 0.86428833 37.51635742 C0.86246675 43.34391762 0.86487265 49.17146516 0.86962891 54.99902344 C0.87507151 61.74561292 0.87330884 68.49217219 0.8678025 75.23876095 C0.86327105 81.02134174 0.86262098 86.80391341 0.86524117 92.5864954 C0.86680377 96.04451556 0.86699818 99.50252151 0.86370468 102.96054077 C0.86029161 106.81354964 0.86501623 110.66652439 0.87060547 114.51953125 C0.86858124 115.67385651 0.86655701 116.82818176 0.86447144 118.01748657 C0.86729126 119.06077118 0.87011108 120.10405579 0.87301636 121.17895508 C0.87339338 122.09115311 0.87377041 123.00335114 0.87415886 123.94319153 C0.77154353 125.99241187 0.77154353 125.99241187 2 127 C3.60457191 127.09817208 5.21347274 127.12631921 6.82104492 127.12698364 C8.38597183 127.13121338 8.38597183 127.13121338 9.98251343 127.13552856 C11.71400131 127.13249222 11.71400131 127.13249222 13.48046875 127.12939453 C14.68845123 127.13114685 15.89643372 127.13289917 17.14102173 127.13470459 C20.46325954 127.13836278 23.78543543 127.13748968 27.10766983 127.1343255 C30.57723324 127.13180152 34.04679392 127.13413955 37.51635742 127.13571167 C43.34391762 127.13753325 49.17146516 127.13512735 54.99902344 127.13037109 C61.74561292 127.12492849 68.49217219 127.12669116 75.23876095 127.1321975 C81.02134174 127.13672895 86.80391341 127.13737902 92.5864954 127.13475883 C96.04451556 127.13319623 99.50252151 127.13300182 102.96054077 127.13629532 C106.81354964 127.13970839 110.66652439 127.13498377 114.51953125 127.12939453 C115.67385651 127.13141876 116.82818176 127.13344299 118.01748657 127.13552856 C119.06077118 127.13270874 120.10405579 127.12988892 121.17895508 127.12698364 C122.09115311 127.12660662 123.00335114 127.12622959 123.94319153 127.12584114 C125.99241187 127.22845647 125.99241187 127.22845647 127 126 C127.09594225 124.41845152 127.1218796 122.83260875 127.12025452 121.24815369 C127.12162918 120.22025223 127.12300385 119.19235077 127.12442017 118.13330078 C127.12082489 116.99610596 127.11722961 115.85891113 127.11352539 114.68725586 C127.11367142 113.49717422 127.11381744 112.30709259 127.1139679 111.08094788 C127.11338894 107.80836726 127.10835981 104.53582893 127.10139394 101.26325679 C127.09515967 97.84661335 127.09455654 94.42996917 127.09336853 91.01332092 C127.09025543 84.53930733 127.08204233 78.06531054 127.07201904 71.59130436 C127.06085725 64.2226208 127.05534729 56.85393645 127.05032361 49.48524654 C127.03985969 34.32348831 127.02226066 19.16174583 127 4 C123.75150023 5.72226496 123.75150023 5.72226496 123 9 C121.35 9.33 119.7 9.66 118 10 C118.33 8.35 118.66 6.7 119 5 C119.99 4.67 120.98 4.34 122 4 C122 3.34 122 2.68 122 2 C122.99 1.67 123.98 1.34 125 1 C108.98006463 0.97667084 92.96013474 0.95902074 76.9401865 0.94818783 C69.5023549 0.94302491 62.06453383 0.93598229 54.62670898 0.92456055 C48.14618658 0.91461359 41.66567181 0.90814654 35.18514198 0.90591151 C31.75169458 0.90460442 28.318269 0.9015187 24.88482857 0.89426994 C21.05806179 0.88625584 17.23131665 0.88600887 13.40454102 0.88647461 C12.25799545 0.88287933 11.11144989 0.87928406 9.93016052 0.87557983 C8.89384491 0.8769545 7.8575293 0.87832916 6.78981018 0.87974548 C5.88368768 0.87882369 4.97756517 0.8779019 4.04398441 0.87695217 C2.00604565 0.77284166 2.00604565 0.77284166 1 2 Z " fill="#414C56" transform="translate(0,0)"/>
<path d="M0 0 C1.4783226 2.95664519 1.06032783 5.74229737 1 9 C1.99 9 2.98 9 4 9 C5.5 11 5.5 11 7 13 C7.99 13 8.98 13 10 13 C10.845625 13.04125 11.69125 13.0825 12.5625 13.125 C15.18314627 13.26349674 15.18314627 13.26349674 17 11 C19.45098556 11.39532025 21.63904279 12.21301426 24 13 C24.495 16.465 24.495 16.465 25 20 C6.52 20 -11.96 20 -31 20 C-31 19.67 -31 19.34 -31 19 C-30.07380859 18.77957031 -30.07380859 18.77957031 -29.12890625 18.5546875 C-23.29462203 17.0095346 -18.92665592 14.94092998 -14.10546875 11.3046875 C-12 10 -12 10 -9.30078125 9.46484375 C-8.54152344 9.31144531 -7.78226563 9.15804687 -7 9 C-6.28752268 7.3523962 -5.62599617 5.68236471 -5 4 C-2.375 1.6875 -2.375 1.6875 0 0 Z " fill="#A2ACB3" transform="translate(102,106)"/>
<path d="M0 0 C0 0.99 0 1.98 0 3 C1.32 3 2.64 3 4 3 C3.67 4.32 3.34 5.64 3 7 C3.99 7 4.98 7 6 7 C6 7.66 6 8.32 6 9 C5.34 9 4.68 9 4 9 C4 9.66 4 10.32 4 11 C4.66 11 5.32 11 6 11 C6 11.66 6 12.32 6 13 C5.34 13 4.68 13 4 13 C3.731875 13.763125 3.46375 14.52625 3.1875 15.3125 C2.05575888 17.87380884 1.08776599 19.19692938 -1 21 C-1 20.01 -1 19.02 -1 18 C-2.051875 18.268125 -3.10375 18.53625 -4.1875 18.8125 C-8 19 -8 19 -10.9375 17 C-13.43099539 13.37309762 -13.42279968 11.31255674 -13 7 C-13.99 7 -14.98 7 -16 7 C-16 7.66 -16 8.32 -16 9 C-16.99 9 -17.98 9 -19 9 C-19.33 9.99 -19.66 10.98 -20 12 C-21.3921875 11.505 -21.3921875 11.505 -22.8125 11 C-25.92029291 9.85032996 -25.92029291 9.85032996 -29 10 C-30.68236471 9.37400383 -32.3523962 8.71247732 -34 8 C-33.67 6.35 -33.34 4.7 -33 3 C-31.8553125 3.37125 -31.8553125 3.37125 -30.6875 3.75 C-26.8355402 4.01114982 -25.56438314 3.54096786 -22.125 2.0625 C-14.8547862 -0.86368564 -7.69109511 -0.34740204 0 0 Z " fill="#465059" transform="translate(69,12)"/>
<path d="M0 0 C0.66 0.66 1.32 1.32 2 2 C2.94875 2.144375 3.8975 2.28875 4.875 2.4375 C8.1261174 3.02270113 9.56431758 3.84535786 12 6 C10.3603125 6.4021875 10.3603125 6.4021875 8.6875 6.8125 C4.57732916 7.98739733 4.57732916 7.98739733 2 11 C1.45931438 14.63031776 1.53620159 16.32214079 3.625 19.375 C6.75011169 21.51323431 8.28162465 21.6829669 12 21 C15.27554396 18.32000949 17.23479623 15.80197734 19 12 C19.66 11.67 20.32 11.34 21 11 C22.04287458 20.45208552 22.04287458 20.45208552 19.7578125 23.84375 C15.75406135 27.01723018 12.02284187 27.50103827 7.015625 27.2734375 C5 27 5 27 2 26 C1.67 26.66 1.34 27.32 1 28 C-1.87529818 26.71107323 -4.05008298 25.50703617 -6 23 C-6.6875 20.3125 -6.6875 20.3125 -7 18 C-9.97 18 -12.94 18 -16 18 C-16.38218767 16.34385343 -16.71395102 14.67542976 -17 13 C-16 12 -16 12 -13.93359375 11.90234375 C-12.69802734 11.91974609 -12.69802734 11.91974609 -11.4375 11.9375 C-10.61121094 11.94652344 -9.78492188 11.95554687 -8.93359375 11.96484375 C-8.29550781 11.97644531 -7.65742187 11.98804688 -7 12 C-6.9175 11.113125 -6.835 10.22625 -6.75 9.3125 C-5.89879084 5.55299285 -4.62034678 3.77915568 -2 1 C-1.34 0.67 -0.68 0.34 0 0 Z " fill="#202D3A" transform="translate(55,50)"/>
<path d="M0 0 C1.32 0 2.64 0 4 0 C4 0.66 4 1.32 4 2 C4.99 1.67 5.98 1.34 7 1 C7 1.66 7 2.32 7 3 C7.99 2.67 8.98 2.34 10 2 C10 2.99 10 3.98 10 5 C10.66 5.33 11.32 5.66 12 6 C11.67 6.66 11.34 7.32 11 8 C11.66 8 12.32 8 13 8 C13 9.65 13 11.3 13 13 C12.34 13 11.68 13 11 13 C11.185625 13.70125 11.37125 14.4025 11.5625 15.125 C12.46368024 21.04704155 10.32492334 26.65464524 8.71875 32.31640625 C8.03607043 34.865324 7.48756444 37.40746984 7 40 C4.06296616 39.37063561 1.66211372 38.37579827 -1 37 C-1.34551 24.40807994 -1.34551 24.40807994 0 19.8125 C1.7294524 13.21896272 1.40097852 6.65464799 0 0 Z " fill="#2E3A44" transform="translate(104,54)"/>
<path d="M0 0 C2 2 2 2 2 4 C4.475 4.99 4.475 4.99 7 6 C4 8 4 8 3 8 C3.66 8.33 4.32 8.66 5 9 C6.09036928 11.9737344 6.03864166 12.88407501 5 16 C4.29667053 24.86656334 4.89754762 32.05149852 9 40 C7.02 40.99 5.04 41.98 3 43 C3 42.34 3 41.68 3 41 C1.88625 40.896875 0.7725 40.79375 -0.375 40.6875 C-2.169375 40.3471875 -2.169375 40.3471875 -4 40 C-6.1519437 36.77208445 -6.20086443 35.71599191 -6 32 C-4.68 31.34 -3.36 30.68 -2 30 C-2 26.04 -2 22.08 -2 18 C-3.32 17.67 -4.64 17.34 -6 17 C-5.82316211 10.05509386 -4.11844576 5.57737857 0 0 Z " fill="#8C98A1" transform="translate(31,41)"/>
<path d="M0 0 C10.55783161 3.52562969 18.03028536 13.46177164 23 23 C26.92480621 31.43220083 29.17271134 38.12583625 29.125 47.4375 C29.13080078 48.56381836 29.13080078 48.56381836 29.13671875 49.71289062 C29.12293793 57.54728856 29.12293793 57.54728856 28 61 C27.01 61.66 26.02 62.32 25 63 C24.664061 61.5422647 24.33133376 60.08378894 24 58.625 C23.814375 57.81289062 23.62875 57.00078125 23.4375 56.1640625 C23 54 23 54 23 52 C23.66 52 24.32 52 25 52 C24.855625 51.195625 24.71125 50.39125 24.5625 49.5625 C24.26834818 47.69953847 23.98771975 45.83033867 23.8515625 43.94921875 C23.39929514 37.88668248 21.9395075 32.36206713 19 27 C18.01 26.34 17.02 25.68 16 25 C16.99 24.67 17.98 24.34 19 24 C19 22.68 19 21.36 19 20 C18.28070313 19.773125 17.56140625 19.54625 16.8203125 19.3125 C13.40742531 17.72423117 11.46258609 15.72210891 8.875 13 C6.29959908 10.30717958 4.10536365 8.07024243 1 6 C0.3125 2.875 0.3125 2.875 0 0 Z " fill="#182532" transform="translate(92,15)"/>
<path d="M0 0 C0.99 0 1.98 0 3 0 C3.66 0.66 4.32 1.32 5 2 C5.33 2 5.66 2 6 2 C7.09848966 15.33880305 7.10890351 28.62329823 7 42 C6.67 42 6.34 42 6 42 C5.67 39.03 5.34 36.06 5 33 C4.113125 32.773125 3.22625 32.54625 2.3125 32.3125 C-1.58620077 30.76773177 -3.47227986 29.34551195 -6 26 C-6.96965302 20.50529957 -5.1622912 16.52327611 -3.0234375 11.578125 C-1.51893054 7.78814563 -0.77376052 3.99776269 0 0 Z " fill="#C4CACF" transform="translate(120,71)"/>
<path d="M0 0 C2.97 0.33 5.94 0.66 9 1 C9 2.65 9 4.3 9 6 C9.886875 5.896875 10.77375 5.79375 11.6875 5.6875 C15 6 15 6 17.875 8.125 C20.34199395 11.46269769 20.54035146 12.94736402 20 17 C19.67 17.66 19.34 18.32 19 19 C19.99 18.67 20.98 18.34 22 18 C22 18.66 22 19.32 22 20 C21.34 20 20.68 20 20 20 C20 20.66 20 21.32 20 22 C19.01 22 18.02 22 17 22 C17 22.99 17 23.98 17 25 C16.34 25 15.68 25 15 25 C15 24.34 15 23.68 15 23 C14.34 23 13.68 23 13 23 C13 23.66 13 24.32 13 25 C12.34 25 11.68 25 11 25 C11 24.34 11 23.68 11 23 C10.01 23.33 9.02 23.66 8 24 C8 23.34 8 22.68 8 22 C6.68 21.67 5.36 21.34 4 21 C4.33 20.34 4.66 19.68 5 19 C4.34 18.67 3.68 18.34 3 18 C3.33 17.34 3.66 16.68 4 16 C3.01 16 2.02 16 1 16 C1 15.34 1 14.68 1 14 C1.66 14 2.32 14 3 14 C3.103125 13.236875 3.20625 12.47375 3.3125 11.6875 C4.06799155 8.73421485 4.86992523 8.04132166 7 6 C7.71447643 3.89667109 7.71447643 3.89667109 8 2 C5.69 2.33 3.38 2.66 1 3 C0.67 2.01 0.34 1.02 0 0 Z " fill="#727A84" transform="translate(52,93)"/>
<path d="M0 0 C0.66 0.33 1.32 0.66 2 1 C2 2.32 2 3.64 2 5 C6.23735537 6.67523352 8.60153594 6.97743646 13 6 C13.66 6.66 14.32 7.32 15 8 C15.33 7.34 15.66 6.68 16 6 C17.32 6 18.64 6 20 6 C20.0825 6.53625 20.165 7.0725 20.25 7.625 C20.95043816 10.25137686 20.95043816 10.25137686 23.125 13.0625 C24.053125 14.5165625 24.053125 14.5165625 25 16 C24.505 17.485 24.505 17.485 24 19 C22.125 18.6875 22.125 18.6875 20 18 C18 15 18 15 18 12 C10.90086082 12.95312517 6.39384664 15.32631272 1 20 C0.39285156 19.66226563 -0.21429688 19.32453125 -0.83984375 18.9765625 C-3.63155299 17.7144878 -5.08407744 18.25232755 -8 19 C-8.99 19 -9.98 19 -11 19 C-11 14.97698923 -9.67577112 13.95743123 -7 11 C-5.92510311 10.15581268 -4.84154945 9.322542 -3.75 8.5 C-0.7286166 6.30516589 -0.7286166 6.30516589 -0.6875 3.25 C-0.790625 2.5075 -0.89375 1.765 -1 1 C-0.67 0.67 -0.34 0.34 0 0 Z " fill="#3B4651" transform="translate(34,15)"/>
<path d="M0 0 C6.58851675 0.90430622 6.58851675 0.90430622 9.6875 1.625 C12.13927953 2.02258587 13.6639741 1.7786753 16 1 C16.2475 2.2684375 16.2475 2.2684375 16.5 3.5625 C18.30523351 7.69949347 20.53359348 9.51906003 23.9765625 12.328125 C26 14 26 14 28.6875 16.8125 C31.05725997 19.05416483 32.91314387 20.02984522 36 21 C35.505 23.475 35.505 23.475 35 26 C31.63295715 26.2295711 29.58629732 26.33943529 26.625 24.625 C26.08875 24.08875 25.5525 23.5525 25 23 C25 22.34 25 21.68 25 21 C24.34 21 23.68 21 23 21 C21.33333333 19.33333333 19.66666667 17.66666667 18 16 C17.071875 15.443125 16.14375 14.88625 15.1875 14.3125 C14.465625 13.879375 13.74375 13.44625 13 13 C13 12.34 13 11.68 13 11 C11.865625 10.731875 10.73125 10.46375 9.5625 10.1875 C7.7990625 9.5996875 7.7990625 9.5996875 6 9 C5.67 8.01 5.34 7.02 5 6 C4.34 5.690625 3.68 5.38125 3 5.0625 C1 4 1 4 0.25 1.875 C0.1675 1.25625 0.085 0.6375 0 0 Z " fill="#535C66" transform="translate(76,14)"/>
<path d="M0 0 C1.83996852 1.66473342 3.09318401 3.15897676 4.35546875 5.3125 C10.79167417 15.83057441 20.96684545 25.08453889 32.95629883 28.4440918 C39.28563791 29.60009606 45.71728682 29.3044989 52.125 29.1875 C53.57290266 29.17241768 55.02082062 29.15873558 56.46875 29.14648438 C59.97948994 29.11377849 63.48964399 29.06219511 67 29 C65 32 65 32 61.375 33.1875 C47.57936732 35.83110755 31.6905307 34.94810302 19.4765625 27.78515625 C16.2998432 25.49531284 13.91928191 22.92346785 11.53515625 19.83203125 C10.04005298 17.89808937 10.04005298 17.89808937 7.87109375 16.44921875 C6 15 6 15 5 12 C4.525625 11.54625 4.05125 11.0925 3.5625 10.625 C0.46269929 7.40120726 0 4.38483613 0 0 Z " fill="#727C85" transform="translate(11,91)"/>
<path d="M0 0 C-1.67578125 1.57421875 -1.67578125 1.57421875 -4 3 C-6.48046875 2.70703125 -6.48046875 2.70703125 -9.1875 1.8125 C-10.15300781 1.51472656 -11.11851563 1.21695312 -12.11328125 0.91015625 C-13.06589844 0.60980469 -14.01851562 0.30945313 -15 0 C-20.09079485 -1.38413316 -23.81079287 -2.26566028 -29 -1 C-30.54218843 -1.04792907 -32.08389082 -1.11250097 -33.625 -1.1875 C-37.83659296 -1.26921748 -40.85577853 -0.46133818 -44.75 1.125 C-48.50650507 2.64891553 -49.5902143 3.08334624 -53.6875 2.25 C-54.450625 1.8375 -55.21375 1.425 -56 1 C-53.13661157 -1.31987488 -50.43212933 -2.79609627 -47 -4.125 C-46.154375 -4.45757812 -45.30875 -4.79015625 -44.4375 -5.1328125 C-29.66061312 -10.38997418 -13.51125018 -6.96517919 0 0 Z " fill="#212E3A" transform="translate(92,14)"/>
<path d="M0 0 C0.33 0 0.66 0 1 0 C1.10957031 0.89460938 1.21914062 1.78921875 1.33203125 2.7109375 C2.83975316 16.21987205 2.83975316 16.21987205 9 28 C9.66 27.34 10.32 26.68 11 26 C13.125 26.375 13.125 26.375 15 27 C14.67 28.65 14.34 30.3 14 32 C12.515 32.495 12.515 32.495 11 33 C15.39968148 39.48737348 20.85291147 46.42645573 28 50 C28.33 48.68 28.66 47.36 29 46 C30.98 45.505 30.98 45.505 33 45 C33.495 47.475 33.495 47.475 34 50 C32.68 50.66 31.36 51.32 30 52 C34.29 53.65 38.58 55.3 43 57 C39 59 39 59 36.7734375 58.6015625 C25.42214635 53.97970128 14.99768341 45.10776492 8 35 C6.75 31.6875 6.75 31.6875 6 29 C5.34 29 4.68 29 4 29 C1.04809715 21.55607108 -0.16399608 15.18222725 -0.0625 7.125 C-0.05798828 6.43664062 -0.05347656 5.74828125 -0.04882812 5.0390625 C-0.03716336 3.35933665 -0.01923271 1.67965625 0 0 Z " fill="#566068" transform="translate(6,62)"/>
<path d="M0 0 C0.66 0.99 1.32 1.98 2 3 C4.23690643 4.44525427 4.23690643 4.44525427 7 5 C10.2552429 4.22148021 10.2552429 4.22148021 13 3 C12.67 4.32 12.34 5.64 12 7 C12.66 7 13.32 7 14 7 C16 11.875 16 11.875 16 13 C17.175625 12.7215625 17.175625 12.7215625 18.375 12.4375 C21 12 21 12 23 13 C22.67 14.98 22.34 16.96 22 19 C22.99 19 23.98 19 25 19 C24.67 20.32 24.34 21.64 24 23 C16.16172296 22.82960267 10.59877669 18.48793141 5.09765625 13.15625 C2.31778789 10.05693467 0.02775067 7.11100266 -1 3 C-0.67 2.01 -0.34 1.02 0 0 Z " fill="#626C75" transform="translate(28,78)"/>
<path d="M0 0 C3.34903861 1.23768818 4.85279734 2.10697303 6.875 5.0625 C7.4375 8.5625 7.4375 8.5625 6.875 12.0625 C4.3261805 14.9861459 2.67984394 15.91159176 -1.125 16.625 C-5.22889613 15.85551948 -6.66459272 14.39128632 -9.125 11.0625 C-9.8125 8.0625 -9.8125 8.0625 -9.125 5.0625 C-6.16174116 1.74647225 -4.52716343 0.09054327 0 0 Z " fill="#626D76" transform="translate(65.125,55.9375)"/>
<path d="M0 0 C0.33 0.66 0.66 1.32 1 2 C1.66 2 2.32 2 3 2 C3.33 1.34 3.66 0.68 4 0 C4 6.93 4 13.86 4 21 C3.67 20.34 3.34 19.68 3 19 C2.34 19 1.68 19 1 19 C0.67 19.66 0.34 20.32 0 21 C0 20.34 0 19.68 0 19 C-0.99 19.33 -1.98 19.66 -3 20 C-3 19.34 -3 18.68 -3 18 C-3.99 18.33 -4.98 18.66 -6 19 C-6 18.34 -6 17.68 -6 17 C-6.66 16.34 -7.32 15.68 -8 15 C-7.67 14.34 -7.34 13.68 -7 13 C-7.66 13 -8.32 13 -9 13 C-9.20086443 9.28400809 -9.1519437 8.22791555 -7 5 C-6.34 5.33 -5.68 5.66 -5 6 C-5.33 5.01 -5.66 4.02 -6 3 C-5.01 3 -4.02 3 -3 3 C-2.67 2.34 -2.34 1.68 -2 1 C-1.34 1.33 -0.68 1.66 0 2 C0 1.34 0 0.68 0 0 Z " fill="#949EA7" transform="translate(20,54)"/>
<path d="M0 0 C1.32 0 2.64 0 4 0 C4 0.66 4 1.32 4 2 C4.99 1.67 5.98 1.34 7 1 C7 1.66 7 2.32 7 3 C7.99 2.67 8.98 2.34 10 2 C10 2.99 10 3.98 10 5 C10.66 5.33 11.32 5.66 12 6 C11.67 6.66 11.34 7.32 11 8 C11.66 8 12.32 8 13 8 C13 9.65 13 11.3 13 13 C12.34 13 11.68 13 11 13 C11.33 13.99 11.66 14.98 12 16 C11.34 16 10.68 16 10 16 C10 16.66 10 17.32 10 18 C6.63316085 20.43160605 5.26649636 21 1 21 C0.67 20.34 0.34 19.68 0 19 C0.495 17.515 0.495 17.515 1 16 C1.31661477 10.58961227 1.11873451 5.31398894 0 0 Z " fill="#E5E8E9" transform="translate(104,54)"/>
<path d="M0 0 C2.76223278 2.76223278 2.57856291 5.20706617 3 9 C2.01 9.66 1.02 10.32 0 11 C-0.99 12.485 -0.99 12.485 -2 14 C-5.72683201 16.18748835 -7.61495124 17 -12 17 C-13 10.375 -13 10.375 -13 7 C-11.68 6.34 -10.36 5.68 -9 5 C-9 4.34 -9 3.68 -9 3 C-6.03 2.01 -3.06 1.02 0 0 Z " fill="#142230" transform="translate(89,97)"/>
<path d="M0 0 C0.33 0.66 0.66 1.32 1 2 C0.67 2.7425 0.34 3.485 0 4.25 C-1.20907704 7.57496185 -0.79044779 9.60107451 0 13 C0.99 13.33 1.98 13.66 3 14 C2.61328125 14.43570313 2.2265625 14.87140625 1.828125 15.3203125 C-1.43984501 19.05744652 -4.34140589 22.8076016 -7 27 C-8.32 26.67 -9.64 26.34 -11 26 C-10.45276317 22.62537285 -9.9451 20.91765 -8 18 C-8.57920507 14.84569108 -8.57920507 14.84569108 -10 12 C-10.99 11.67 -11.98 11.34 -13 11 C-12.48050781 10.62488281 -11.96101563 10.24976562 -11.42578125 9.86328125 C-7.27747551 6.81914561 -3.52678314 3.74720709 0 0 Z " fill="#1D2A36" transform="translate(99,86)"/>
<path d="M0 0 C0.66 0.33 1.32 0.66 2 1 C1.67 2.65 1.34 4.3 1 6 C2.03125 6.433125 3.0625 6.86625 4.125 7.3125 C6.51742487 8.32819748 8.75927373 9.40287994 11.0625 10.625 C14.08916175 12.04173529 16.69610536 12.60667921 20 13 C19.67 14.98 19.34 16.96 19 19 C18.5875 18.484375 18.175 17.96875 17.75 17.4375 C16.10918135 15.74673571 16.10918135 15.74673571 13.9375 16.1875 C11.81287474 16.93470336 11.81287474 16.93470336 10 19 C9.071875 18.67 8.14375 18.34 7.1875 18 C4.07970709 16.85032996 4.07970709 16.85032996 1 17 C0.34 15.68 -0.32 14.36 -1 13 C-1.99 13 -2.98 13 -4 13 C-4.29543354 7.97762985 -4.00679573 5.0892422 -1 1 C-0.67 0.67 -0.34 0.34 0 0 Z " fill="#AEB7BC" transform="translate(106,102)"/>
<path d="M0 0 C0.66 0.33 1.32 0.66 2 1 C1.51144531 2.21816406 1.02289062 3.43632813 0.51953125 4.69140625 C-1.49576497 10.75627358 -1.40368662 16.60185334 -1.3125 22.9375 C-1.31572266 24.05318359 -1.31894531 25.16886719 -1.32226562 26.31835938 C-1.27853677 33.10428264 -0.62658661 39.40892579 1 46 C-0.175625 46.1546875 -0.175625 46.1546875 -1.375 46.3125 C-4.33045181 46.77595022 -4.33045181 46.77595022 -6 50 C-6.33933962 38.75151988 -5.98277059 27.74967263 -4.6875 16.5625 C-4.56979248 15.49136963 -4.45208496 14.42023926 -4.33081055 13.31665039 C-4.20488525 12.30594482 -4.07895996 11.29523926 -3.94921875 10.25390625 C-3.78425903 8.91307983 -3.78425903 8.91307983 -3.6159668 7.54516602 C-2.90580482 4.61078688 -1.66106762 2.5038462 0 0 Z " fill="#98A2AA" transform="translate(7,49)"/>
<path d="M0 0 C0.99 0 1.98 0 3 0 C3.10957031 0.62648438 3.21914063 1.25296875 3.33203125 1.8984375 C3.49058594 2.71570313 3.64914063 3.53296875 3.8125 4.375 C3.96332031 5.18710937 4.11414063 5.99921875 4.26953125 6.8359375 C4.87544942 9.35820641 4.87544942 9.35820641 8 11 C10.33199388 11.07905064 12.66832622 11.08798769 15 11 C15.33 11.99 15.66 12.98 16 14 C18.475 14.495 18.475 14.495 21 15 C21 15.66 21 16.32 21 17 C20.01 16.98839844 19.02 16.97679688 18 16.96484375 C11.26199467 16.9102781 4.67000397 16.91101976 -2 18 C-2.99 16.35 -3.98 14.7 -5 13 C-6.65 13.33 -8.3 13.66 -10 14 C-10 16.46278801 -9.14547137 17.85224119 -8 20 C-11.465 18.02 -11.465 18.02 -15 16 C-10.950809 11.16709462 -7.03280791 9.6166348 -1 8 C-0.01 9.98 0.98 11.96 2 14 C2.99 14 3.98 14 5 14 C4.690625 13.4225 4.38125 12.845 4.0625 12.25 C3 10 3 10 2.5 7.8125 C2.2525 6.9153125 2.2525 6.9153125 2 6 C1.34 5.67 0.68 5.34 0 5 C0 3.35 0 1.7 0 0 Z " fill="#E6EAEB" transform="translate(53,19)"/>
<path d="M0 0 C0.33 0 0.66 0 1 0 C1.33 1.98 1.66 3.96 2 6 C2.33 6 2.66 6 3 6 C3.33 4.35 3.66 2.7 4 1 C4.33 1 4.66 1 5 1 C5.10957031 1.85722656 5.21914063 2.71445312 5.33203125 3.59765625 C6.20241662 9.87433778 7.10533931 15.3422541 10 21 C8.02 21.99 6.04 22.98 4 24 C4 23.34 4 22.68 4 22 C2.88625 21.896875 1.7725 21.79375 0.625 21.6875 C-1.169375 21.3471875 -1.169375 21.3471875 -3 21 C-5.1519437 17.77208445 -5.20086443 16.71599191 -5 13 C-4.35546875 12.78601563 -3.7109375 12.57203125 -3.046875 12.3515625 C-0.72160885 11.1526477 -0.72160885 11.1526477 -0.390625 8.3984375 C-0.34421875 7.40070313 -0.2978125 6.40296875 -0.25 5.375 C-0.19328125 4.37210937 -0.1365625 3.36921875 -0.078125 2.3359375 C-0.05234375 1.56507812 -0.0265625 0.79421875 0 0 Z " fill="#6F7982" transform="translate(30,60)"/>
<path d="M0 0 C2.4375 1.5625 2.4375 1.5625 4 4 C3.78571429 10.21428571 3.78571429 10.21428571 1 13 C-1.93188861 13.27922749 -4.15390647 13.47143881 -7 13 C-9.45636081 10.92744557 -9.88864581 9.63630966 -10.4375 6.5 C-9.41545969 0.65976965 -5.50319355 -0.91719892 0 0 Z " fill="#EFF1F1" transform="translate(67,16)"/>
<path d="M0 0 C-0.34212929 2.98214191 -0.63884974 4.60992466 -2.70703125 6.84375 C-3.40183594 7.3903125 -4.09664062 7.936875 -4.8125 8.5 C-7.3389975 10.56263076 -9.22154306 12.2830828 -11.25 14.875 C-13.14850796 17.18033109 -14.0782168 17.6869518 -17 18 C-17 19.32 -17 20.64 -17 22 C-15.68 22.66 -14.36 23.32 -13 24 C-13.8971875 24.12375 -13.8971875 24.12375 -14.8125 24.25 C-17.64009262 25.21946033 -18.34716167 26.55667377 -20 29 C-21.5625 30.75 -21.5625 30.75 -23 32 C-23.66 32 -24.32 32 -25 32 C-22.26655717 22.07328656 -12.34787448 0 0 0 Z " fill="#13202D" transform="translate(34,17)"/>
<path d="M0 0 C0.66 0 1.32 0 2 0 C2.6875 1.75 2.6875 1.75 3 4 C2.5153125 4.5775 2.030625 5.155 1.53125 5.75 C-0.49373119 8.72548257 -0.30360376 10.68948474 -0.1875 14.25 C-0.16042969 15.32765625 -0.13335937 16.4053125 -0.10546875 17.515625 C-0.07066406 18.33546875 -0.03585938 19.1553125 0 20 C-1.32 20.33 -2.64 20.66 -4 21 C-4.33 19.68 -4.66 18.36 -5 17 C-7.97 17 -10.94 17 -14 17 C-14.38218767 15.34385343 -14.71395102 13.67542976 -15 12 C-14 11 -14 11 -11.93359375 10.90234375 C-10.69802734 10.91974609 -10.69802734 10.91974609 -9.4375 10.9375 C-8.61121094 10.94652344 -7.78492188 10.95554687 -6.93359375 10.96484375 C-6.29550781 10.97644531 -5.65742187 10.98804688 -5 11 C-4.9175 10.113125 -4.835 9.22625 -4.75 8.3125 C-3.90015652 4.55902463 -2.65972191 2.74031954 0 0 Z " fill="#8B97A0" transform="translate(53,51)"/>
<path d="M0 0 C2.97 0.33 5.94 0.66 9 1 C9 2.65 9 4.3 9 6 C9.886875 5.896875 10.77375 5.79375 11.6875 5.6875 C15 6 15 6 17.875 8.125 C20.34199395 11.46269769 20.54035146 12.94736402 20 17 C19.67 17.66 19.34 18.32 19 19 C19.99 18.67 20.98 18.34 22 18 C22 18.66 22 19.32 22 20 C21.34 20 20.68 20 20 20 C20 20.66 20 21.32 20 22 C19.01 22 18.02 22 17 22 C17 22.99 17 23.98 17 25 C16.34 25 15.68 25 15 25 C15 24.34 15 23.68 15 23 C14.34 23 13.68 23 13 23 C13 23.66 13 24.32 13 25 C12.34 25 11.68 25 11 25 C11 24.34 11 23.68 11 23 C10.01 23.33 9.02 23.66 8 24 C8 23.34 8 22.68 8 22 C6.68 21.67 5.36 21.34 4 21 C4.33 20.34 4.66 19.68 5 19 C4.34 18.67 3.68 18.34 3 18 C3.33 17.34 3.66 16.68 4 16 C3.01 16 2.02 16 1 16 C1 15.34 1 14.68 1 14 C1.66 14 2.32 14 3 14 C3.103125 13.236875 3.20625 12.47375 3.3125 11.6875 C4.06799155 8.73421485 4.86992523 8.04132166 7 6 C7.71447643 3.89667109 7.71447643 3.89667109 8 2 C5.69 2.33 3.38 2.66 1 3 C0.67 2.01 0.34 1.02 0 0 Z M7.75 8.5625 C5.3497796 11.90566413 5.41472501 13.97623447 6 18 C7.5 20.16666667 7.5 20.16666667 10 21 C13.12861361 20.87230149 15.22806182 20.44822217 17.9375 18.875 C19.71780396 15.73328713 18.90328691 13.37227112 18 10 C16.30835778 7.95970404 16.30835778 7.95970404 14 7 C10.09102566 6.61973613 10.09102566 6.61973613 7.75 8.5625 Z " fill="#404B55" transform="translate(52,93)"/>
<path d="M0 0 C1.32 0 2.64 0 4 0 C3.875 1.75 3.875 1.75 3 4 C0.03950471 6.25255076 -2.4680368 7.82267893 -6 9 C-6.33 11.64 -6.66 14.28 -7 17 C-8.65 17.33 -10.3 17.66 -12 18 C-12.09796875 17.37351562 -12.1959375 16.74703125 -12.296875 16.1015625 C-12.44640625 15.28429687 -12.5959375 14.46703125 -12.75 13.625 C-12.88921875 12.81289062 -13.0284375 12.00078125 -13.171875 11.1640625 C-13.81749261 8.82290908 -13.81749261 8.82290908 -16.078125 7.7109375 C-16.71234375 7.47632812 -17.3465625 7.24171875 -18 7 C-17.67 6.01 -17.34 5.02 -17 4 C-15.78763672 4.06960937 -15.78763672 4.06960937 -14.55078125 4.140625 C-7.90843507 4.54789124 -7.90843507 4.54789124 -2 2 C-1.34 1.34 -0.68 0.68 0 0 Z " fill="#838F98" transform="translate(74,72)"/>
<path d="M0 0 C0.66 0.33 1.32 0.66 2 1 C1.33613281 1.45890625 0.67226563 1.9178125 -0.01171875 2.390625 C-4.44798964 5.47334754 -8.84624016 8.53853346 -13 12 C-13.66 11.67 -14.32 11.34 -15 11 C-15.33 11.99 -15.66 12.98 -16 14 C-16.66 14 -17.32 14 -18 14 C-18.33 13.01 -18.66 12.02 -19 11 C-20.0828125 11.495 -20.0828125 11.495 -21.1875 12 C-24.01697427 13.00603529 -26.02895466 13.16977402 -29 13 C-29.33 11.35 -29.66 9.7 -30 8 C-28.56445975 7.49440092 -27.1264798 6.9957251 -25.6875 6.5 C-24.88699219 6.2215625 -24.08648437 5.943125 -23.26171875 5.65625 C-20.65928286 4.90113907 -18.69277035 4.82122055 -16.0625 5.5 C-13.14988424 6.20608867 -10.83264416 6.48526144 -8.18359375 4.94140625 C-7.31927734 4.25884766 -7.31927734 4.25884766 -6.4375 3.5625 C-4.16332928 1.78469617 -2.8075796 0.93585987 0 0 Z " fill="#2E3A46" transform="translate(46,27)"/>
<path d="M0 0 C3.3 0 6.6 0 10 0 C10 0.99 10 1.98 10 3 C11.32 3 12.64 3 14 3 C13.67 4.32 13.34 5.64 13 7 C13.99 7 14.98 7 16 7 C16 7.66 16 8.32 16 9 C15.34 9 14.68 9 14 9 C14 9.66 14 10.32 14 11 C14.66 11 15.32 11 16 11 C16 11.66 16 12.32 16 13 C15.34 13 14.68 13 14 13 C13.731875 13.763125 13.46375 14.52625 13.1875 15.3125 C12.05575888 17.87380884 11.08776599 19.19692938 9 21 C9 20.01 9 19.02 9 18 C7.948125 18.268125 6.89625 18.53625 5.8125 18.8125 C2 19 2 19 -0.875 17.25 C-3.87226053 12.66595448 -3.89635977 8.37987008 -4 3 C-3.01 3 -2.02 3 -1 3 C-0.67 2.01 -0.34 1.02 0 0 Z M-0.4375 5.5625 C-2.34287189 8.02667281 -2.34287189 8.02667281 -1.875 11.625 C-1.29259286 15.04542055 -1.29259286 15.04542055 1 17 C6.41955876 17.67339166 6.41955876 17.67339166 11.0625 15.4375 C12.40411569 11.9492992 11.92678615 9.57474656 11 6 C6.87551176 3.25034117 3.83136681 2.82604692 -0.4375 5.5625 Z " fill="#A6ADB2" transform="translate(59,12)"/>
<path d="M0 0 C1.2065625 0.0309375 1.2065625 0.0309375 2.4375 0.0625 C2.81968767 1.71864657 3.15145102 3.38707024 3.4375 5.0625 C3.1075 5.3925 2.7775 5.7225 2.4375 6.0625 C3.0975 6.7225 3.7575 7.3825 4.4375 8.0625 C3.31950014 9.40170838 2.19288103 10.73372556 1.0625 12.0625 C0.12277344 13.17625 0.12277344 13.17625 -0.8359375 14.3125 C-1.40570313 14.89 -1.97546875 15.4675 -2.5625 16.0625 C-3.2225 16.0625 -3.8825 16.0625 -4.5625 16.0625 C-4.5625 13.0625 -4.5625 13.0625 -2.5625 11.0625 C-5.23497634 8.71962582 -5.23497634 8.71962582 -8.5625 8.0625 C-8.8925 9.0525 -9.2225 10.0425 -9.5625 11.0625 C-10.8825 10.7325 -12.2025 10.4025 -13.5625 10.0625 C-12.60520084 8.93661986 -11.64662105 7.8118285 -10.6875 6.6875 C-10.15382813 6.06101562 -9.62015625 5.43453125 -9.0703125 4.7890625 C-7.94817993 3.50413349 -6.76878025 2.26878025 -5.5625 1.0625 C-4.9025 1.0625 -4.2425 1.0625 -3.5625 1.0625 C-2.5625 0.0625 -2.5625 0.0625 0 0 Z " fill="#8F9AA3" transform="translate(96.5625,75.9375)"/>
<path d="M0 0 C3.04409346 3.04409346 3.15617309 5.75237911 3.1875 9.875 C3.15968544 13.68003233 2.82323603 16.58143244 1 20 C0.67 19.34 0.34 18.68 0 18 C-1.32303717 17.6278958 -2.65737935 17.29369827 -4 17 C-5.73219928 15.26780072 -5.21291761 12.97973192 -5.25 10.625 C-5.27578125 9.64789063 -5.3015625 8.67078125 -5.328125 7.6640625 C-5 5 -5 5 -3.609375 3.1484375 C-2 2 -2 2 0 2 C0 1.34 0 0.68 0 0 Z " fill="#15222F" transform="translate(103,55)"/>
<path d="M0 0 C0.33 0 0.66 0 1 0 C1.68257988 13.01077137 2.15552202 25.97071086 2 39 C1.67 39 1.34 39 1 39 C0.92652344 37.64455078 0.92652344 37.64455078 0.8515625 36.26171875 C0.77679688 35.08222656 0.70203125 33.90273437 0.625 32.6875 C0.55539063 31.51574219 0.48578125 30.34398437 0.4140625 29.13671875 C0.21386253 25.84300113 0.21386253 25.84300113 -2 23 C-2.66 23.33 -3.32 23.66 -4 24 C-4.0543965 21.62468606 -4.09385864 19.25064117 -4.125 16.875 C-4.14175781 16.20984375 -4.15851563 15.5446875 -4.17578125 14.859375 C-4.23292338 9.0308776 -3.23016023 4.84524034 0 0 Z " fill="#DCE0E3" transform="translate(125,50)"/>
<path d="M0 0 C-0.44909061 1.48199902 -0.90956564 2.96055236 -1.375 4.4375 C-1.63023438 5.26121094 -1.88546875 6.08492187 -2.1484375 6.93359375 C-3 9 -3 9 -5 10 C-7.01050386 13.18200019 -7.43574419 16.1548119 -7.8515625 19.859375 C-7.98046875 20.97441406 -8.109375 22.08945312 -8.2421875 23.23828125 C-8.36851563 24.39714844 -8.49484375 25.55601563 -8.625 26.75 C-8.7590625 27.92433594 -8.893125 29.09867188 -9.03125 30.30859375 C-9.36092632 33.20503574 -9.68357562 36.10208535 -10 39 C-10.33 39 -10.66 39 -11 39 C-11.024727 34.64005933 -11.04287281 30.28015586 -11.05493164 25.92016602 C-11.05995903 24.43708587 -11.06678185 22.95401067 -11.07543945 21.47094727 C-11.08757482 19.33869199 -11.09324425 17.20650227 -11.09765625 15.07421875 C-11.10289307 13.79119873 -11.10812988 12.50817871 -11.11352539 11.1862793 C-11 8 -11 8 -10 5 C-9.01 5.33 -8.02 5.66 -7 6 C-6.731875 5.38125 -6.46375 4.7625 -6.1875 4.125 C-4.67436553 1.41728569 -3.21502868 0 0 0 Z " fill="#C3C9CE" transform="translate(12,40)"/>
<path d="M0 0 C0.99 0.66 1.98 1.32 3 2 C3.66 1.34 4.32 0.68 5 0 C5.02578125 0.77085938 5.0515625 1.54171875 5.078125 2.3359375 C5.13484375 3.33882812 5.1915625 4.34171875 5.25 5.375 C5.29640625 6.37273437 5.3428125 7.37046875 5.390625 8.3984375 C5.59171875 9.25695312 5.7928125 10.11546875 6 11 C7.93569453 12.25189029 7.93569453 12.25189029 10 13 C10.9375 15.3125 10.9375 15.3125 11 18 C9.5625 20.8125 9.5625 20.8125 8 23 C7.01 22.67 6.02 22.34 5 22 C5.33 20.35 5.66 18.7 6 17 C3.58380177 16.74969023 3.58380177 16.74969023 1 17 C0.34 17.99 -0.32 18.98 -1 20 C-1.79953138 16.71303767 -2.09658936 15.28976808 -1 12 C-0.77674186 9.94106379 -0.59294241 7.87766347 -0.4375 5.8125 C-0.35371094 4.72582031 -0.26992187 3.63914063 -0.18359375 2.51953125 C-0.12300781 1.68808594 -0.06242187 0.85664062 0 0 Z M2 23 C5 24 5 24 5 24 Z " fill="#B9BFC5" transform="translate(93,60)"/>
<path d="M0 0 C0.99 0.33 1.98 0.66 3 1 C3.6875 3.0625 3.6875 3.0625 4 5 C6.64 5.33 9.28 5.66 12 6 C12.38218767 7.65614657 12.71395102 9.32457024 13 11 C12 12 12 12 9.93359375 12.09765625 C9.10988281 12.08605469 8.28617188 12.07445313 7.4375 12.0625 C6.61121094 12.05347656 5.78492187 12.04445313 4.93359375 12.03515625 C4.29550781 12.02355469 3.65742187 12.01195313 3 12 C2.67 13.65 2.34 15.3 2 17 C0.68 16.34 -0.64 15.68 -2 15 C-1.835 14.44699219 -1.67 13.89398438 -1.5 13.32421875 C-0.94440827 10.74158531 -0.93765418 8.45050771 -1 5.8125 C-1.037569 4.20877332 -1.04673183 2.60348584 -1 1 C-0.67 0.67 -0.34 0.34 0 0 Z " fill="#B2B9C0" transform="translate(77,56)"/>
<path d="M0 0 C8.67887991 2.84579214 16.5875029 11.12054089 21 19 C20.609375 21.1953125 20.609375 21.1953125 20 23 C19.67 22.01 19.34 21.02 19 20 C18.26007813 19.71125 17.52015625 19.4225 16.7578125 19.125 C13.27805309 17.70549475 11.45494338 15.71406887 8.875 13 C6.29959908 10.30717958 4.10536365 8.07024243 1 6 C0.3125 2.875 0.3125 2.875 0 0 Z " fill="#1E2B38" transform="translate(92,15)"/>
<path d="M0 0 C1.67542976 0.28604898 3.34385343 0.61781233 5 1 C5.12375 2.918125 5.12375 2.918125 5.25 4.875 C5.45869931 7.05333418 5.45869931 7.05333418 6 9 C7.92064793 10.5899433 7.92064793 10.5899433 10 11 C9.67 11.99 9.34 12.98 9 14 C4.38 14 -0.24 14 -5 14 C-5 12.68 -5 11.36 -5 10 C-3.68 9.67 -2.36 9.34 -1 9 C-1.020625 7.700625 -1.04125 6.40125 -1.0625 5.0625 C-1.08399454 3.70834367 -1.07148199 2.35243917 -1 1 C-0.67 0.67 -0.34 0.34 0 0 Z " fill="#C4CACF" transform="translate(62,39)"/>
<path d="M0 0 C0.96070434 2.88211302 1.10581883 4.69850044 1.0625 7.6875 C1.05347656 8.49574219 1.04445313 9.30398437 1.03515625 10.13671875 C1.02355469 10.75160156 1.01195313 11.36648437 1 12 C1.66 11.67 2.32 11.34 3 11 C3.66 12.32 4.32 13.64 5 15 C3.35 16.98 1.7 18.96 0 21 C-1.875 20.875 -1.875 20.875 -4 20 C-5.84838962 16.47125617 -6.08951123 14.49231177 -5.375 10.5625 C-3.89576957 6.72994844 -2.14161151 3.49796547 0 0 Z " fill="#24303B" transform="translate(103,79)"/>
<path d="M0 0 C1.875 1.125 1.875 1.125 3 3 C2.875 6.0625 2.875 6.0625 2 9 C-1 11 -1 11 -3.5625 10.75 C-6 10 -6 10 -8 8 C-8.3125 5 -8.3125 5 -8 2 C-4.76746204 -0.15502531 -3.74849077 -0.46856135 0 0 Z " fill="#DEE2E4" transform="translate(67,59)"/>
<path d="M0 0 C0.94875 0.825 1.8975 1.65 2.875 2.5 C4.24958645 3.66715389 5.62463226 4.83376689 7 6 C7.77214844 6.67289062 8.54429688 7.34578125 9.33984375 8.0390625 C10.15582031 8.72742188 10.97179688 9.41578125 11.8125 10.125 C12.56144531 10.76695313 13.31039063 11.40890625 14.08203125 12.0703125 C22.42045693 17.58461275 30.27363427 18.62399416 40.125 18.75 C41.27226563 18.77964844 42.41953125 18.80929688 43.6015625 18.83984375 C46.40110922 18.90983242 49.19985761 18.96287811 52 19 C52 19.33 52 19.66 52 20 C32.38392098 21.59690852 32.38392098 21.59690852 23 19 C22.33355469 18.86207031 21.66710937 18.72414063 20.98046875 18.58203125 C14.60735465 16.8557091 10.24973752 11.96365356 5.63671875 7.49609375 C3.0671064 4.92254668 3.0671064 4.92254668 0 3 C0 2.01 0 1.02 0 0 Z " fill="#656F78" transform="translate(18,102)"/>
<path d="M0 0 C2 1.375 2 1.375 4 3 C4 3.66 4 4.32 4 5 C5.32 5.66 6.64 6.32 8 7 C8 7.99 8 8.98 8 10 C7.030625 10.268125 6.06125 10.53625 5.0625 10.8125 C4.051875 11.204375 3.04125 11.59625 2 12 C1.67 12.99 1.34 13.98 1 15 C-1.09749995 12.64031256 -1.96905704 11.45383006 -2.1875 8.25 C-2.125625 7.5075 -2.06375 6.765 -2 6 C-2.66 6 -3.32 6 -4 6 C-4 5.01 -4 4.02 -4 3 C-2 1.3125 -2 1.3125 0 0 Z " fill="#C2C8CC" transform="translate(88,35)"/>
<path d="M0 0 C0.66 0 1.32 0 2 0 C2.94401042 1.7578125 3.88802083 3.515625 4.83203125 5.2734375 C6.04763493 7.30502365 6.04763493 7.30502365 9 9 C8.34 9 7.68 9 7 9 C7 9.66 7 10.32 7 11 C3.63316085 13.43160605 2.26649636 14 -2 14 C-3.49341969 11.01316063 -2.40648676 9.04839022 -1.5625 5.875 C-1.27503906 4.77929688 -0.98757812 3.68359375 -0.69140625 2.5546875 C-0.46324219 1.71164063 -0.23507813 0.86859375 0 0 Z " fill="#D0D5D9" transform="translate(107,61)"/>
<path d="M0 0 C0 0.66 0 1.32 0 2 C-0.60585938 2.10957031 -1.21171875 2.21914062 -1.8359375 2.33203125 C-7.35363729 3.37614983 -12.50774534 4.74311675 -17.7734375 6.70703125 C-20 7 -20 7 -22.2890625 5.57421875 C-22.85367188 5.05472656 -23.41828125 4.53523437 -24 4 C-15.88913612 -0.57157783 -9.14269201 -1.75072826 0 0 Z " fill="#111E2B" transform="translate(60,10)"/>
<path d="M0 0 C2 0 2 0 4 1 C5.3125 3.9375 5.3125 3.9375 6 7 C5.67 7.66 5.34 8.32 5 9 C9.29 9 13.58 9 18 9 C18 9.33 18 9.66 18 10 C10.74 10 3.48 10 -4 10 C-4 9.67 -4 9.34 -4 9 C-2.35 8.67 -0.7 8.34 1 8 C0.01 7.67 -0.98 7.34 -2 7 C-2.125 4.625 -2.125 4.625 -2 2 C-1.34 1.34 -0.68 0.68 0 0 Z M-4 7 C-2 8 -2 8 -2 8 Z " fill="#717B84" transform="translate(6,117)"/>
<path d="M0 0 C2.0625 0.4375 2.0625 0.4375 4 1 C3.67 2.65 3.34 4.3 3 6 C2.01 6.33 1.02 6.66 0 7 C4.29 8.65 8.58 10.3 13 12 C9 14 9 14 6.5625 13.4609375 C-1.98334966 9.83937316 -1.98334966 9.83937316 -5 6 C-4.01 6 -3.02 6 -2 6 C-1.855625 5.195625 -1.71125 4.39125 -1.5625 3.5625 C-1 1 -1 1 0 0 Z " fill="#576068" transform="translate(36,107)"/>
<path d="M0 0 C1.134375 0.020625 2.26875 0.04125 3.4375 0.0625 C4.13449552 1.51631897 4.81983866 2.97572953 5.5 4.4375 C5.88285156 5.24960938 6.26570312 6.06171875 6.66015625 6.8984375 C6.91667969 7.61257812 7.17320313 8.32671875 7.4375 9.0625 C7.1075 9.7225 6.7775 10.3825 6.4375 11.0625 C3.1375 9.0825 -0.1625 7.1025 -3.5625 5.0625 C-4.2225 6.0525 -4.8825 7.0425 -5.5625 8.0625 C-4.54651535 0.07976343 -4.54651535 0.07976343 0 0 Z " fill="#909BA4" transform="translate(6.5625,94.9375)"/>
<path d="M0 0 C5.96564796 0.50771472 10.63809899 2.38592128 16 5 C14.34375 6.57421875 14.34375 6.57421875 12 8 C9.34375 7.70703125 9.34375 7.70703125 6.5 6.8125 C5.09234375 6.38904297 5.09234375 6.38904297 3.65625 5.95703125 C1.32232002 5.11613001 -0.81594913 4.16929138 -3 3 C-2.01 2.67 -1.02 2.34 0 2 C0 1.34 0 0.68 0 0 Z " fill="#14212F" transform="translate(76,9)"/>
<path d="M0 0 C0.0825 0.53625 0.165 1.0725 0.25 1.625 C0.95043816 4.25137686 0.95043816 4.25137686 3.125 7.0625 C3.74375 8.031875 4.3625 9.00125 5 10 C4.67 10.99 4.34 11.98 4 13 C2.125 12.6875 2.125 12.6875 0 12 C-2 9 -2 9 -2 6 C-2.639375 5.87625 -3.27875 5.7525 -3.9375 5.625 C-4.618125 5.41875 -5.29875 5.2125 -6 5 C-6.33 4.34 -6.66 3.68 -7 3 C-4.49955934 -0.00052879 -4.2621484 0 0 0 Z " fill="#323E49" transform="translate(54,21)"/>
<path d="M0 0 C0.66 0.33 1.32 0.66 2 1 C1.52269162 2.4589426 1.04308958 3.91713496 0.5625 5.375 C0.29566406 6.18710937 0.02882813 6.99921875 -0.24609375 7.8359375 C-1 10 -1 10 -2 12 C-2.19666997 13.61786836 -2.34406266 15.2418909 -2.46484375 16.8671875 C-2.58182617 18.31931641 -2.58182617 18.31931641 -2.70117188 19.80078125 C-2.85810416 21.84219793 -3.01177645 23.88386797 -3.16210938 25.92578125 C-3.24138672 26.89644531 -3.32066406 27.86710937 -3.40234375 28.8671875 C-3.46929443 29.75519043 -3.53624512 30.64319336 -3.60522461 31.55810547 C-4.00962242 34.05951975 -4.746455 35.8133699 -6 38 C-4.74523414 7.02709537 -4.74523414 7.02709537 0 0 Z " fill="#A5AFB5" transform="translate(7,49)"/>
<path d="M0 0 C3.65316671 1.24976756 4.78065836 1.67098753 7 5 C6.01 5.33 5.02 5.66 4 6 C4 6.99 4 7.98 4 9 C2.35 9.33 0.7 9.66 -1 10 C-1.99 8.68 -2.98 7.36 -4 6 C-2.68 4.02 -1.36 2.04 0 0 Z " fill="#545D67" transform="translate(88,83)"/>
<path d="M0 0 C5.25986842 4.85526316 5.25986842 4.85526316 6 9 C6.66 9.33 7.32 9.66 8 10 C7.67 10.66 7.34 11.32 7 12 C1.25 11.25 1.25 11.25 -1 9 C-1.33870968 2.67741935 -1.33870968 2.67741935 0 0 Z " fill="#677079" transform="translate(59,102)"/>
<path d="M0 0 C2.64 0.33 5.28 0.66 8 1 C8.33 1.99 8.66 2.98 9 4 C8.34 4 7.68 4 7 4 C7.33 6.31 7.66 8.62 8 11 C6.68 11.33 5.36 11.66 4 12 C3.51801537 10.75108386 3.03954323 9.50081192 2.5625 8.25 C2.29566406 7.55390625 2.02882813 6.8578125 1.75390625 6.140625 C1.03853307 4.10940997 0.48634348 2.0964709 0 0 Z " fill="#101F2C" transform="translate(13,76)"/>
<path d="M0 0 C0.66 0 1.32 0 2 0 C2.33 1.32 2.66 2.64 3 4 C1.47005208 5.171875 -0.05989583 6.34375 -1.58984375 7.515625 C-3.39053593 9.16716076 -3.39053593 9.16716076 -4 13 C-7.3 13 -10.6 13 -14 13 C-14 12.34 -14 11.68 -14 11 C-11.03 11 -8.06 11 -5 11 C-4.9175 10.113125 -4.835 9.22625 -4.75 8.3125 C-3.90015652 4.55902463 -2.65972191 2.74031954 0 0 Z " fill="#879199" transform="translate(53,51)"/>
<path d="M0 0 C0.66 1.98 1.32 3.96 2 6 C1.01 6.495 1.01 6.495 0 7 C-0.598125 6.67 -1.19625 6.34 -1.8125 6 C-4.59642818 4.72734712 -6.10918261 5.19699517 -9 6 C-9 8.46278801 -8.14547137 9.85224119 -7 12 C-10.465 10.02 -10.465 10.02 -14 8 C-10.25177905 3.79744924 -5.95901859 0 0 0 Z " fill="#D3D8DB" transform="translate(52,27)"/>
<path d="M0 0 C0.33 0 0.66 0 1 0 C1.10957031 0.89460938 1.21914062 1.78921875 1.33203125 2.7109375 C2.20042109 9.33329253 3.21360226 15.53198342 5.51171875 21.81640625 C6.10784216 24.48227014 5.6857207 26.38137531 5 29 C-1.60520733 20.98326892 -0.23573993 9.82249699 0 0 Z " fill="#68717B" transform="translate(6,62)"/>
<path d="M0 0 C0.33 0 0.66 0 1 0 C1.33 4.62 1.66 9.24 2 14 C1.67 13.34 1.34 12.68 1 12 C0.34 12 -0.32 12 -1 12 C-1.33 12.66 -1.66 13.32 -2 14 C-2 13.34 -2 12.68 -2 12 C-2.99 12.33 -3.98 12.66 -5 13 C-5 12.34 -5 11.68 -5 11 C-5.99 11.33 -6.98 11.66 -8 12 C-8 11.34 -8 10.68 -8 10 C-7.34 9.67 -6.68 9.34 -6 9 C-6.33 8.34 -6.66 7.68 -7 7 C-5.5459375 6.38125 -5.5459375 6.38125 -4.0625 5.75 C-0.87739901 4.35100832 -0.87739901 4.35100832 -0.125 1.8125 C-0.08375 1.214375 -0.0425 0.61625 0 0 Z " fill="#7A8690" transform="translate(22,61)"/>
<path d="M0 0 C2.97 0.33 5.94 0.66 9 1 C9 2.65 9 4.3 9 6 C9.886875 5.896875 10.77375 5.79375 11.6875 5.6875 C15 6 15 6 17.875 8.125 C20.32150834 11.43498188 20.46707789 12.98313013 20 17 C19.67 17 19.34 17 19 17 C18.731875 15.88625 18.46375 14.7725 18.1875 13.625 C17.34190981 9.78159049 17.34190981 9.78159049 14 8 C10.08432788 8.48945902 6.83903134 9.16096866 4 12 C4.57344937 9.13275314 4.8614515 8.1385485 7 6 C7.6425235 3.93125966 7.6425235 3.93125966 8 2 C5.69 2.33 3.38 2.66 1 3 C0.67 2.01 0.34 1.02 0 0 Z " fill="#525C65" transform="translate(52,93)"/>
<path d="M0 0 C0.50789063 0.39832031 1.01578125 0.79664062 1.5390625 1.20703125 C5.53903498 4.28566175 9.36879143 6.91595614 14 9 C14 9.66 14 10.32 14 11 C13.34 11 12.68 11 12 11 C12.66 12.32 13.32 13.64 14 15 C12.68 15 11.36 15 10 15 C10.33 13.02 10.66 11.04 11 9 C7.05272412 8.82057837 4.4019487 8.90649311 1 11 C1.350625 10.236875 1.70125 9.47375 2.0625 8.6875 C3.32360884 5.95240621 3.32360884 5.95240621 2 3 C1.34 3 0.68 3 0 3 C0 2.01 0 1.02 0 0 Z " fill="#6A737C" transform="translate(40,82)"/>
<path d="M0 0 C-0.6 5.4 -0.6 5.4 -2.25 7.875 C-4.58213386 9.37422891 -6.28371825 9.22023906 -9 9 C-9 7.35 -9 5.7 -9 4 C-7.68 3.67 -6.36 3.34 -5 3 C-5 2.34 -5 1.68 -5 1 C-2 0 -2 0 0 0 Z " fill="#E4E8E9" transform="translate(127,1)"/>
<path d="M0 0 C0.66 0.33 1.32 0.66 2 1 C1.49202991 5.3177458 0.80317221 9.03302114 -1 13 C-3.62187494 11.95125002 -4.79371361 11.35068687 -6.25 8.875 C-6.4975 8.25625 -6.745 7.6375 -7 7 C-5.5459375 6.38125 -5.5459375 6.38125 -4.0625 5.75 C-0.87739901 4.35100832 -0.87739901 4.35100832 -0.125 1.8125 C-0.08375 1.214375 -0.0425 0.61625 0 0 Z " fill="#343F4A" transform="translate(114,70)"/>
<path d="M0 0 C2.69082872 0.17635452 5.32851446 0.61835921 8 1 C7 4 7 4 5 5.0625 C4.34 5.371875 3.68 5.68125 3 6 C2.67 6.66 2.34 7.32 2 8 C1.34 8 0.68 8 0 8 C0 10.31 0 12.62 0 15 C-0.33 15 -0.66 15 -1 15 C-1.02685412 12.68756208 -1.04632841 10.3750373 -1.0625 8.0625 C-1.07410156 6.77472656 -1.08570312 5.48695312 -1.09765625 4.16015625 C-1 1 -1 1 0 0 Z " fill="#E3E6E8" transform="translate(2,1)"/>
<path d="M0 0 C2.475 0.495 2.475 0.495 5 1 C6.06351675 4.38391693 6.21442982 5.5804634 4.5625 8.8125 C4.046875 9.534375 3.53125 10.25625 3 11 C2.01 10.67 1.02 10.34 0 10 C0.185625 9.278125 0.37125 8.55625 0.5625 7.8125 C1.01995307 4.87173027 0.73516357 2.85896942 0 0 Z M-3 11 C0 12 0 12 0 12 Z " fill="#C1C7CC" transform="translate(98,72)"/>
<path d="M0 0 C-3.0103245 3.0103245 -5.22903621 2.97819673 -9.453125 3.09765625 C-11.33257812 3.08025391 -11.33257812 3.08025391 -13.25 3.0625 C-14.51328125 3.05347656 -15.7765625 3.04445313 -17.078125 3.03515625 C-18.04234375 3.02355469 -19.0065625 3.01195313 -20 3 C-19.67 2.34 -19.34 1.68 -19 1 C-16.53948784 0.49246372 -14.17406965 0.11256313 -11.6875 -0.1875 C-10.67139648 -0.32961914 -10.67139648 -0.32961914 -9.63476562 -0.47460938 C-6.19466739 -0.91513026 -3.29725221 -1.19514797 0 0 Z " fill="#6C757E" transform="translate(78,121)"/>
<path d="M0 0 C0.66 0 1.32 0 2 0 C0.9295723 2.16086338 -0.16164075 4.30564797 -1.2890625 6.4375 C-1.72992187 7.283125 -2.17078125 8.12875 -2.625 9 C-3.29402344 10.2684375 -3.29402344 10.2684375 -3.9765625 11.5625 C-5.258088 14.17407626 -5.258088 14.17407626 -5 18 C-6.32 17.67 -7.64 17.34 -9 17 C-8.44064577 13.09142602 -7.32566703 10.59544795 -5.0625 7.375 C-4.53785156 6.61960937 -4.01320313 5.86421875 -3.47265625 5.0859375 C-2.98667969 4.39757813 -2.50070313 3.70921875 -2 3 C-1.34 2.01 -0.68 1.02 0 0 Z " fill="#152330" transform="translate(31,38)"/>
<path d="M0 0 C2.5 0.1875 2.5 0.1875 5 1 C5.66 1.99 6.32 2.98 7 4 C5.25 5.5625 5.25 5.5625 3 7 C0.75 6.6875 0.75 6.6875 -1 6 C-1.625 4.125 -1.625 4.125 -2 2 C-1.34 1.34 -0.68 0.68 0 0 Z " fill="#1E2B38" transform="translate(80,31)"/>
<path d="M0 0 C0.86625 0.3403125 0.86625 0.3403125 1.75 0.6875 C2.08 2.0075 2.41 3.3275 2.75 4.6875 C1.43 5.6775 0.11 6.6675 -1.25 7.6875 C-2.9 6.0375 -4.55 4.3875 -6.25 2.6875 C-2.80384615 -0.38942308 -2.80384615 -0.38942308 0 0 Z " fill="#192532" transform="translate(47.25,31.3125)"/>
<path d="M0 0 C2.475 0.495 2.475 0.495 5 1 C5 3.64 5 6.28 5 9 C3.35 9 1.7 9 0 9 C0 6.03 0 3.06 0 0 Z " fill="#DEE2E5" transform="translate(62,39)"/>
<path d="M0 0 C1.32 0.66 2.64 1.32 4 2 C4 3.98 4 5.96 4 8 C1.625 7.75 1.625 7.75 -1 7 C-2.3125 4.9375 -2.3125 4.9375 -3 3 C-2.01 2.01 -1.02 1.02 0 0 Z " fill="#081320" transform="translate(45,90)"/>
<path d="M0 0 C0.66 0.33 1.32 0.66 2 1 C-1.53632186 5.15133436 -5.96341837 7.98188785 -11 10 C-14.5625 9.8125 -14.5625 9.8125 -17 9 C-14.67655212 7.83546317 -12.3495882 6.67863008 -10.01953125 5.52734375 C-8.96121094 5.00269531 -7.90289062 4.47804688 -6.8125 3.9375 C-5.74644531 3.41027344 -4.68039063 2.88304688 -3.58203125 2.33984375 C-1.13361239 1.23426213 -1.13361239 1.23426213 0 0 Z " fill="#808B95" transform="translate(95,111)"/>
<path d="M0 0 C-0.33 1.32 -0.66 2.64 -1 4 C-1.99 4 -2.98 4 -4 4 C-4.33 4.66 -4.66 5.32 -5 6 C-6.65 5.67 -8.3 5.34 -10 5 C-9.6875 3.0625 -9.6875 3.0625 -9 1 C-5.8035914 -0.06546953 -3.34252724 -0.07427838 0 0 Z " fill="#4A545D" transform="translate(59,12)"/>
<path d="M0 0 C3 1.1875 3 1.1875 5 3.1875 C5.99 3.1875 6.98 3.1875 8 3.1875 C7.67 4.5075 7.34 5.8275 7 7.1875 C4.97954558 6.58566251 2.97888961 5.91443904 1 5.1875 C0.67 4.5275 0.34 3.8675 0 3.1875 C-0.99 3.1875 -1.98 3.1875 -3 3.1875 C-3.66 2.1975 -4.32 1.2075 -5 0.1875 C-3 -0.8125 -3 -0.8125 0 0 Z " fill="#E5E8EA" transform="translate(22,12.8125)"/>
<path d="M0 0 C4.49641723 0.51387626 6.54231781 2.18560752 10 5 C12.61742107 6.44055824 15.29293487 7.73715076 18 9 C15.20324822 10.13060178 14.16415752 10.06552006 11.30859375 8.92578125 C10.36113281 8.39339844 9.41367187 7.86101562 8.4375 7.3125 C7.48746094 6.79300781 6.53742187 6.27351563 5.55859375 5.73828125 C3.05004765 4.03400184 1.63461429 2.52622209 0 0 Z " fill="#78828C" transform="translate(25,113)"/>
<path d="M0 0 C0.50789063 0.38671875 1.01578125 0.7734375 1.5390625 1.171875 C5.61424789 4.25497406 9.71805017 7.2117536 14 10 C14.99 10.66 15.98 11.32 17 12 C13.86650268 13.04449911 13.01031744 12.93423645 10 12 C10 11.34 10 10.68 10 10 C9.34 10 8.68 10 8 10 C6.97895449 9.02149805 5.9793879 8.02019573 5 7 C4.34 6.67 3.68 6.34 3 6 C3 5.34 3 4.68 3 4 C2.01 3.67 1.02 3.34 0 3 C0 2.01 0 1.02 0 0 Z " fill="#030C19" transform="translate(31,89)"/>
<path d="M0 0 C-0.85714286 8.57142857 -0.85714286 8.57142857 -3 12 C-5 9 -5 9 -6 7 C-5.25 3.9375 -5.25 3.9375 -4 1 C-1 0 -1 0 0 0 Z " fill="#0C1A28" transform="translate(119,75)"/>
<path d="M0 0 C0.33 0.66 0.66 1.32 1 2 C1.66 2 2.32 2 3 2 C3.33 1.34 3.66 0.68 4 0 C3.67 1.65 3.34 3.3 3 5 C2.01 5 1.02 5 0 5 C-1.010625 5.515625 -2.02125 6.03125 -3.0625 6.5625 C-4.031875 7.036875 -5.00125 7.51125 -6 8 C-6.66 7.67 -7.32 7.34 -8 7 C-7.67 6.34 -7.34 5.68 -7 5 C-6.34 5.33 -5.68 5.66 -5 6 C-5.33 5.01 -5.66 4.02 -6 3 C-5.01 3 -4.02 3 -3 3 C-2.67 2.34 -2.34 1.68 -2 1 C-1.34 1.33 -0.68 1.66 0 2 C0 1.34 0 0.68 0 0 Z " fill="#A9B2B8" transform="translate(20,54)"/>
<path d="M0 0 C0.70125 -0.02578125 1.4025 -0.0515625 2.125 -0.078125 C2.74375 0.03015625 3.3625 0.1384375 4 0.25 C6 3.25 6 3.25 5.625 5.4375 C5.41875 6.035625 5.2125 6.63375 5 7.25 C4.34 5.6 3.68 3.95 3 2.25 C1.35 2.58 -0.3 2.91 -2 3.25 C-2.33 5.23 -2.66 7.21 -3 9.25 C-5.62386487 6.18882432 -6 5.51826873 -6 1.25 C-3.78704384 0.14352192 -2.45327301 0.05411632 0 0 Z " fill="#E8EBEC" transform="translate(96,45.75)"/>
<path d="M0 0 C1.65 0.99 3.3 1.98 5 3 C4.67 4.32 4.34 5.64 4 7 C0 7 0 7 -3 5 C-1.125 1.125 -1.125 1.125 0 0 Z " fill="#15212E" transform="translate(39,35)"/>
<path d="M0 0 C6.4676963 2.55864909 9.65446857 9.68736785 13 15.4375 C14 18 14 18 13 21 C12.72800781 20.43925781 12.45601562 19.87851562 12.17578125 19.30078125 C8.70052196 12.50035693 4.53380458 6.1339709 0 0 Z " fill="#3A454F" transform="translate(91,34)"/>
<path d="M0 0 C1.32 0.66 2.64 1.32 4 2 C3.25 3.9375 3.25 3.9375 2 6 C-0.125 6.75 -0.125 6.75 -2 7 C-2.66 5.68 -3.32 4.36 -4 3 C-2.68 2.01 -1.36 1.02 0 0 Z " fill="#0A1421" transform="translate(40,86)"/>
<path d="M0 0 C2.17240606 3.25860909 2.23564158 3.82050803 1.8125 7.5 C1.73644531 8.2734375 1.66039062 9.046875 1.58203125 9.84375 C0.9062105 12.34746175 -0.03996044 13.35166485 -2 15 C-2.05386629 12.87527424 -2.09273071 10.75016348 -2.125 8.625 C-2.14820312 7.44164062 -2.17140625 6.25828125 -2.1953125 5.0390625 C-2 2 -2 2 0 0 Z " fill="#86929C" transform="translate(33,56)"/>
<path d="M0 0 C0.33 0 0.66 0 1 0 C1.33 2.64 1.66 5.28 2 8 C0.35 8.33 -1.3 8.66 -3 9 C-4.35439668 6.29120665 -4.06501451 3.99066732 -4 1 C-3.01 1.33 -2.02 1.66 -1 2 C-0.67 1.34 -0.34 0.68 0 0 Z " fill="#7A858F" transform="translate(65,81)"/>
<path d="M0 0 C2 1.375 2 1.375 4 3 C4 3.66 4 4.32 4 5 C1 7 1 7 -1.6875 6.625 C-2.450625 6.41875 -3.21375 6.2125 -4 6 C-4 5.01 -4 4.02 -4 3 C-2 1.3125 -2 1.3125 0 0 Z " fill="#172431" transform="translate(88,35)"/>
<path d="M0 0 C5.61 0.33 11.22 0.66 17 1 C17 1.33 17 1.66 17 2 C11.72 2.66 6.44 3.32 1 4 C0.67 2.68 0.34 1.36 0 0 Z " fill="#EAEDED" transform="translate(50,33)"/>
<path d="M0 0 C0.66 0 1.32 0 2 0 C1.67 0.66 1.34 1.32 1 2 C0.67 1.34 0.34 0.68 0 0 Z M0 1 C0.33 2.32 0.66 3.64 1 5 C-0.65 4.67 -2.3 4.34 -4 4 C-3.2236068 7.0745356 -3.2236068 7.0745356 -1 9 C-3.97 8.505 -3.97 8.505 -7 8 C-7.33 6.68 -7.66 5.36 -8 4 C-2.25 1 -2.25 1 0 1 Z " fill="#78828B" transform="translate(34,73)"/>
<path d="M0 0 C1.65 0 3.3 0 5 0 C5.33 1.65 5.66 3.3 6 5 C4.34385343 5.38218767 2.67542976 5.71395102 1 6 C0 5 0 5 -0.0625 2.4375 C-0.041875 1.633125 -0.02125 0.82875 0 0 Z " fill="#3D4752" transform="translate(94,76)"/>
<path d="M0 0 C4.2496252 1.34314579 6.18349835 2.99416007 8.8125 6.5625 C9.41707031 7.36816406 10.02164063 8.17382812 10.64453125 9.00390625 C12 11 12 11 12 12 C10.02 12 8.04 12 6 12 C6.66 11.67 7.32 11.34 8 11 C6.44111903 7.1736558 3.92872044 4.85362504 1 2 C0.67 1.34 0.34 0.68 0 0 Z " fill="#D2D7DA" transform="translate(88,34)"/>
<path d="M0 0 C4.75481646 0.57634139 7.97048212 2.55068521 12 5 C11.34 6.32 10.68 7.64 10 9 C9.01 8.67 8.02 8.34 7 8 C7.66 7.34 8.32 6.68 9 6 C6.21885944 3.66608797 6.21885944 3.66608797 3.3125 4.375 C2.549375 4.58125 1.78625 4.7875 1 5 C0.34 4.01 -0.32 3.02 -1 2 C-0.67 1.34 -0.34 0.68 0 0 Z " fill="#E5E8E9" transform="translate(77,28)"/>
<path d="M0 0 C2.64 0 5.28 0 8 0 C8 1.32 8 2.64 8 4 C5.03 4 2.06 4 -1 4 C-0.67 2.68 -0.34 1.36 0 0 Z " fill="#D0D6D9" transform="translate(82,63)"/>
<path d="M0 0 C0.33 0.99 0.66 1.98 1 3 C-0.65 4.32 -2.3 5.64 -4 7 C-3.67 7.66 -3.34 8.32 -3 9 C-4.65 8.67 -6.3 8.34 -8 8 C-7.67 7.01 -7.34 6.02 -7 5 C-7.66 5 -8.32 5 -9 5 C-9 4.34 -9 3.68 -9 3 C-7.6078125 3.0928125 -7.6078125 3.0928125 -6.1875 3.1875 C-3.01604897 3.30894264 -3.01604897 3.30894264 -1.125 1.5 C-0.75375 1.005 -0.3825 0.51 0 0 Z " fill="#8A959E" transform="translate(20,62)"/>
<path d="M0 0 C0.66 0 1.32 0 2 0 C2.125 2.875 2.125 2.875 2 6 C1.34 6.66 0.68 7.32 0 8 C-1.32 8 -2.64 8 -4 8 C-3.40312566 4.65750371 -2.26396123 2.53563658 0 0 Z " fill="#172431" transform="translate(73,26)"/>
<path d="M0 0 C6.6 0.33 13.2 0.66 20 1 C20 1.33 20 1.66 20 2 C17.04196565 2.19421438 14.08379837 2.38066186 11.125 2.5625 C10.28324219 2.61857422 9.44148438 2.67464844 8.57421875 2.73242188 C7.76855469 2.78076172 6.96289062 2.82910156 6.1328125 2.87890625 C5.38918457 2.9260376 4.64555664 2.97316895 3.87939453 3.02172852 C2 3 2 3 0 2 C0 1.34 0 0.68 0 0 Z " fill="#4F5963" transform="translate(50,120)"/>
<path d="M0 0 C0.66 0.66 1.32 1.32 2 2 C1.6442194 5.37991574 0.64284201 8.04288438 -1 11 C-1.66 10.67 -2.32 10.34 -3 10 C-2.88637738 8.5199159 -2.75877092 7.04089926 -2.625 5.5625 C-2.55539063 4.73878906 -2.48578125 3.91507812 -2.4140625 3.06640625 C-2.27742188 2.38449219 -2.14078125 1.70257813 -2 1 C-1.34 0.67 -0.68 0.34 0 0 Z " fill="#232F3C" transform="translate(114,83)"/>
<path d="M0 0 C1.65 0 3.3 0 5 0 C5.33 0.99 5.66 1.98 6 3 C4.75 4.5625 4.75 4.5625 3 6 C0.8125 5.6875 0.8125 5.6875 -1 5 C-0.67 3.35 -0.34 1.7 0 0 Z " fill="#9BA6AD" transform="translate(29,49)"/>
<path d="M0 0 C2 2 2 2 2 4 C4.475 4.99 4.475 4.99 7 6 C4 8 4 8 1.4375 7.5625 C0.633125 7.376875 -0.17125 7.19125 -1 7 C-1.99 7.495 -1.99 7.495 -3 8 C-2.45276317 4.62537285 -1.9451 2.91765 0 0 Z " fill="#A8B1B8" transform="translate(31,41)"/>
<path d="M0 0 C1.67542976 0.28604898 3.34385343 0.61781233 5 1 C4.67 2.32 4.34 3.64 4 5 C2.68 5.33 1.36 5.66 0 6 C-0.38218767 4.34385343 -0.71395102 2.67542976 -1 1 C-0.67 0.67 -0.34 0.34 0 0 Z " fill="#E5E8EA" transform="translate(17,34)"/>
<path d="M0 0 C1.33332095 2.6666419 0.67102033 4.16680303 0 7 C1.65 7.33 3.3 7.66 5 8 C5 8.33 5 8.66 5 9 C2.36 9 -0.28 9 -3 9 C-2.4140625 2.84765625 -2.4140625 2.84765625 -2 1 C-1.34 0.67 -0.68 0.34 0 0 Z " fill="#7C8791" transform="translate(4,117)"/>
<path d="M0 0 C1.65 1.65 3.3 3.3 5 5 C4.67 5.99 4.34 6.98 4 8 C2.68 7.67 1.36 7.34 0 7 C-1.125 2.25 -1.125 2.25 0 0 Z " fill="#101E2B" transform="translate(54,26)"/>
<path d="M0 0 C0.33 0.66 0.66 1.32 1 2 C0.34 2 -0.32 2 -1 2 C-1 2.66 -1 3.32 -1 4 C-1.99 4 -2.98 4 -4 4 C-4 4.99 -4 5.98 -4 7 C-4.66 7 -5.32 7 -6 7 C-6 6.34 -6 5.68 -6 5 C-6.66 5 -7.32 5 -8 5 C-8 5.66 -8 6.32 -8 7 C-8.66 7 -9.32 7 -10 7 C-10.33 6.01 -10.66 5.02 -11 4 C-9.39125 3.566875 -9.39125 3.566875 -7.75 3.125 C-4.90599636 2.27179891 -2.56491017 1.4363497 0 0 Z " fill="#515B65" transform="translate(73,111)"/>
<path d="M0 0 C2.0625 0.4375 2.0625 0.4375 4 1 C4 2.32 4 3.64 4 5 C2.68 5.33 1.36 5.66 0 6 C-0.38218767 4.34385343 -0.71395102 2.67542976 -1 1 C-0.67 0.67 -0.34 0.34 0 0 Z " fill="#EDF0F0" transform="translate(89,107)"/>
<path d="M0 0 C1.32 0.99 2.64 1.98 4 3 C3.34 4.32 2.68 5.64 2 7 C0.68 6.34 -0.64 5.68 -2 5 C-2 2 -2 2 0 0 Z " fill="#0A1724" transform="translate(87,86)"/>
<path d="M0 0 C0.99 0.33 1.98 0.66 3 1 C1.88200014 2.33920838 0.75538103 3.67122556 -0.375 5 C-1.00148438 5.7425 -1.62796875 6.485 -2.2734375 7.25 C-3.12808594 8.11625 -3.12808594 8.11625 -4 9 C-4.66 9 -5.32 9 -6 9 C-6 6 -6 6 -4.125 3.9375 C-3.42375 3.298125 -2.7225 2.65875 -2 2 C-1.34 1.34 -0.68 0.68 0 0 Z " fill="#A2ACB3" transform="translate(98,83)"/>
<path d="M0 0 C2.5 1.3125 2.5 1.3125 5 3 C5 3.99 5 4.98 5 6 C3.02 6 1.04 6 -1 6 C-1.33 5.01 -1.66 4.02 -2 3 C-1.34 2.01 -0.68 1.02 0 0 Z " fill="#121E2B" transform="translate(34,40)"/>
<path d="M0 0 C0.66 1.98 1.32 3.96 2 6 C1.01 6.495 1.01 6.495 0 7 C-2.0625 6.3125 -2.0625 6.3125 -4 5 C-4.75 2.875 -4.75 2.875 -5 1 C-2 0 -2 0 0 0 Z " fill="#DCE0E2" transform="translate(52,27)"/>
<path d="M0 0 C1.98 0.495 1.98 0.495 4 1 C4 2.65 4 4.3 4 6 C2.35 5.67 0.7 5.34 -1 5 C-0.67 3.35 -0.34 1.7 0 0 Z " fill="#101D2A" transform="translate(6,117)"/>
<path d="M0 0 C4 1 4 1 6 4 C6.125 6.6875 6.125 6.6875 6 9 C5.01 9.495 5.01 9.495 4 10 C2.68 6.7 1.36 3.4 0 0 Z " fill="#7A848E" transform="translate(65,101)"/>
<path d="M0 0 C2.83022097 3.99560608 1.76210446 7.42737323 1 12 C0.67 12 0.34 12 0 12 C-0.33 9.36 -0.66 6.72 -1 4 C-1.99 4.66 -2.98 5.32 -4 6 C-4.99 5.67 -5.98 5.34 -7 5 C-4.69 3.35 -2.38 1.7 0 0 Z " fill="#9AA4AC" transform="translate(21,57)"/>
<path d="M0 0 C0.66 0.66 1.32 1.32 2 2 C1.9765625 4.1640625 1.9765625 4.1640625 1.625 6.625 C1.51414062 7.44226562 1.40328125 8.25953125 1.2890625 9.1015625 C1.19367187 9.72804688 1.09828125 10.35453125 1 11 C0.01 11 -0.98 11 -2 11 C-1.85892253 9.54119891 -1.71197585 8.08296449 -1.5625 6.625 C-1.48128906 5.81289063 -1.40007813 5.00078125 -1.31640625 4.1640625 C-1 2 -1 2 0 0 Z " fill="#869099" transform="translate(27,47)"/>
<path d="M0 0 C0.99 0.66 1.98 1.32 3 2 C3 2.99 3 3.98 3 5 C0.69 5.33 -1.62 5.66 -4 6 C-2.84826645 3.53199953 -1.95216435 1.95216435 0 0 Z " fill="#172432" transform="translate(93,40)"/>
<path d="M0 0 C1.98 0.495 1.98 0.495 4 1 C3.67 2.65 3.34 4.3 3 6 C1.68 5.67 0.36 5.34 -1 5 C-0.67 3.35 -0.34 1.7 0 0 Z " fill="#121F2C" transform="translate(119,117)"/>
<path d="M0 0 C1.98 0.495 1.98 0.495 4 1 C3.67 2.65 3.34 4.3 3 6 C1.68 5.67 0.36 5.34 -1 5 C-0.67 3.35 -0.34 1.7 0 0 Z " fill="#F5F7F6" transform="translate(36,107)"/>
<path d="M0 0 C1.98 0.495 1.98 0.495 4 1 C3.67 2.65 3.34 4.3 3 6 C1.68 5.67 0.36 5.34 -1 5 C-0.67 3.35 -0.34 1.7 0 0 Z " fill="#F7F9F8" transform="translate(17,88)"/>
<path d="M0 0 C1.98 0.495 1.98 0.495 4 1 C3.67 2.65 3.34 4.3 3 6 C1.68 5.67 0.36 5.34 -1 5 C-0.67 3.35 -0.34 1.7 0 0 Z " fill="#F7F8F8" transform="translate(108,88)"/>
<path d="M0 0 C0.99 0.33 1.98 0.66 3 1 C0.17446016 5.23830976 -2.12180888 4.97715348 -7 6 C-6.625 4.0625 -6.625 4.0625 -6 2 C-5.34 1.67 -4.68 1.34 -4 1 C-4 1.66 -4 2.32 -4 3 C-3.34 3 -2.68 3 -2 3 C-1.67 2.34 -1.34 1.68 -1 1 C-0.67 0.67 -0.34 0.34 0 0 Z " fill="#1A2733" transform="translate(111,72)"/>
<path d="M0 0 C-0.42257276 1.4835001 -0.86356322 2.96176424 -1.3125 4.4375 C-1.55613281 5.26121094 -1.79976562 6.08492187 -2.05078125 6.93359375 C-2.36402344 7.61550781 -2.67726563 8.29742187 -3 9 C-3.99 9.33 -4.98 9.66 -6 10 C-5.51171875 3.9453125 -5.51171875 3.9453125 -5 2 C-2 0 -2 0 0 0 Z " fill="#BFC6CB" transform="translate(12,40)"/>
<path d="M0 0 C1.98 0.495 1.98 0.495 4 1 C3.67 2.65 3.34 4.3 3 6 C1.68 5.67 0.36 5.34 -1 5 C-0.67 3.35 -0.34 1.7 0 0 Z " fill="#F2F4F4" transform="translate(108,34)"/>
<path d="M0 0 C1.98 0.495 1.98 0.495 4 1 C3.67 2.65 3.34 4.3 3 6 C1.68 5.67 0.36 5.34 -1 5 C-0.67 3.35 -0.34 1.7 0 0 Z " fill="#F0F2F2" transform="translate(36,15)"/>
<path d="M0 0 C1.98 0.495 1.98 0.495 4 1 C3.67 2.65 3.34 4.3 3 6 C1.68 5.67 0.36 5.34 -1 5 C-0.67 3.35 -0.34 1.7 0 0 Z " fill="#F3F5F5" transform="translate(89,15)"/>
<path d="M0 0 C5.75 1.875 5.75 1.875 8 3 C8 3.66 8 4.32 8 5 C7.34 5 6.68 5 6 5 C6.66 6.32 7.32 7.64 8 9 C6.68 9 5.36 9 4 9 C4.33 7.02 4.66 5.04 5 3 C2.525 2.01 2.525 2.01 0 1 C0 0.67 0 0.34 0 0 Z " fill="#707A83" transform="translate(46,88)"/>
<path d="M0 0 C3.3 0 6.6 0 10 0 C10.33 0.66 10.66 1.32 11 2 C9.741875 2.185625 8.48375 2.37125 7.1875 2.5625 C6.12595703 2.71912109 6.12595703 2.71912109 5.04296875 2.87890625 C3 3 3 3 0 2 C0 1.34 0 0.68 0 0 Z " fill="#28313D" transform="translate(59,35)"/>
<path d="M0 0 C0.99 0 1.98 0 3 0 C3.12117188 0.62648438 3.24234375 1.25296875 3.3671875 1.8984375 C3.53476562 2.71570313 3.70234375 3.53296875 3.875 4.375 C4.03742187 5.18710937 4.19984375 5.99921875 4.3671875 6.8359375 C4.86658932 9.18673923 4.86658932 9.18673923 7 11 C6.01 11 5.02 11 4 11 C3.71125 10.195625 3.4225 9.39125 3.125 8.5625 C2.26737432 5.8673532 2.26737432 5.8673532 0 5 C0 3.35 0 1.7 0 0 Z " fill="#C7CDD1" transform="translate(53,19)"/>
<path d="M0 0 C1.32 0 2.64 0 4 0 C4 1.65 4 3.3 4 5 C2.68 5 1.36 5 0 5 C-0.5625 3.0625 -0.5625 3.0625 -1 1 C-0.67 0.67 -0.34 0.34 0 0 Z " fill="#16212E" transform="translate(6,5)"/>
<path d="M0 0 C0.66 0 1.32 0 2 0 C2 0.66 2 1.32 2 2 C2.99 2.33 3.98 2.66 5 3 C5.99 3.66 6.98 4.32 8 5 C5.03 5 2.06 5 -1 5 C-0.67 3.35 -0.34 1.7 0 0 Z " fill="#020F1D" transform="translate(61,116)"/>
<path d="M0 0 C-1.36983503 3.16115776 -1.9890638 3.9927092 -5 6 C-5.66 4.68 -6.32 3.36 -7 2 C-4 0 -4 0 0 0 Z " fill="#07101C" transform="translate(39,83)"/>
<path d="M0 0 C0.99 0 1.98 0 3 0 C3.268125 0.61875 3.53625 1.2375 3.8125 1.875 C4.95556848 4.2995233 4.95556848 4.2995233 8 6 C6.3125 6.6875 6.3125 6.6875 4 7 C1.25 5.5625 1.25 5.5625 -1 4 C-0.67 2.68 -0.34 1.36 0 0 Z " fill="#9EA7AF" transform="translate(90,77)"/>
<path d="M0 0 C1.32 0 2.64 0 4 0 C4 1.98 4 3.96 4 6 C2.68 5.67 1.36 5.34 0 5 C-0.5625 3.0625 -0.5625 3.0625 -1 1 C-0.67 0.67 -0.34 0.34 0 0 Z " fill="#CED3D7" transform="translate(95,49)"/>
<path d="M0 0 C2.475 0.495 2.475 0.495 5 1 C5 2.32 5 3.64 5 5 C3.35 5 1.7 5 0 5 C0 3.35 0 1.7 0 0 Z " fill="#1B2632" transform="translate(118,5)"/>
<path d="M0 0 C0.66 0.66 1.32 1.32 2 2 C3.98356483 2.71408334 5.98315437 3.38617742 8 4 C7.34 4.66 6.68 5.32 6 6 C3.5 5.8125 3.5 5.8125 1 5 C0.34 4.01 -0.32 3.02 -1 2 C-0.67 1.34 -0.34 0.68 0 0 Z " fill="#CDD2D6" transform="translate(60,64)"/>
<path d="M0 0 C0.99 0 1.98 0 3 0 C3.309375 1.11375 3.61875 2.2275 3.9375 3.375 C4.82326483 6.7945155 4.82326483 6.7945155 6 9 C1.125 7.125 1.125 7.125 0 6 C-0.04080783 4.00041636 -0.04254356 1.99954746 0 0 Z " fill="#57616B" transform="translate(56,61)"/>
<path d="M0 0 C0 0.33 0 0.66 0 1 C-0.9075 1.12375 -1.815 1.2475 -2.75 1.375 C-5.60996164 1.92499262 -7.55989718 2.46363897 -10 4 C-10.33 4.66 -10.66 5.32 -11 6 C-10.63680051 3.3668037 -10.14494976 2.15568678 -8.3125 0.1875 C-5.20761963 -1.40689803 -3.31383374 -0.82845843 0 0 Z " fill="#77818A" transform="translate(68,57)"/>
<path d="M0 0 C0.625 1.875 0.625 1.875 1 4 C0.34 4.66 -0.32 5.32 -1 6 C-1 5.01 -1 4.02 -1 3 C-3.31 3.33 -5.62 3.66 -8 4 C-8.33 3.34 -8.66 2.68 -9 2 C-6.94921875 1.77213542 -4.8984375 1.54427083 -2.84765625 1.31640625 C-0.98859771 1.18113386 -0.98859771 1.18113386 0 0 Z " fill="#7F8890" transform="translate(69,27)"/>
<path d="M0 0 C1.32 0.33 2.64 0.66 4 1 C2.90554162 1.86657116 1.79902219 2.71792724 0.6875 3.5625 C0.07261719 4.03816406 -0.54226562 4.51382813 -1.17578125 5.00390625 C-1.77777344 5.33261719 -2.37976563 5.66132812 -3 6 C-3.99 5.67 -4.98 5.34 -6 5 C-2.25 2 -2.25 2 0 2 C0 1.34 0 0.68 0 0 Z " fill="#85919A" transform="translate(89,92)"/>
<path d="M0 0 C1.32 0.66 2.64 1.32 4 2 C4 2.99 4 3.98 4 5 C3.01 5.33 2.02 5.66 1 6 C-0.0625 4.125 -0.0625 4.125 -1 2 C-0.67 1.34 -0.34 0.68 0 0 Z " fill="#C1C7CC" transform="translate(73,51)"/>
<path d="M0 0 C-0.33 0.99 -0.66 1.98 -1 3 C-3.92879371 2.37240135 -6.36095629 1.41377341 -9 0 C-5.67465243 -1.10844919 -3.37817425 -0.84454356 0 0 Z " fill="#CFD4D8" transform="translate(72,50)"/>
<path d="M0 0 C1.65 0.99 3.3 1.98 5 3 C4.67 5.64 4.34 8.28 4 11 C1.6870518 8.6870518 1.50419025 7.52095125 0.875 4.375 C0.70742187 3.55773438 0.53984375 2.74046875 0.3671875 1.8984375 C0.24601562 1.27195313 0.12484375 0.64546875 0 0 Z " fill="#0E1C2A" transform="translate(113,43)"/>
<path d="M0 0 C1.67542976 0.28604898 3.34385343 0.61781233 5 1 C3.02 1.99 3.02 1.99 1 3 C1.33 4.32 1.66 5.64 2 7 C0.68 6.34 -0.64 5.68 -2 5 C-1.125 1.125 -1.125 1.125 0 0 Z " fill="#2A3743" transform="translate(80,31)"/>
<path d="M0 0 C1.98 0 3.96 0 6 0 C6 0.99 6 1.98 6 3 C3.69 3.33 1.38 3.66 -1 4 C-0.67 2.68 -0.34 1.36 0 0 Z " fill="#0F1E2B" transform="translate(66,9)"/>
<path d="M0 0 C1.89213369 2.38573379 3.02391783 4.07175348 4 7 C3.01 7.33 2.02 7.66 1 8 C-0.42944945 5.64561267 -1.08661261 4.51967567 -0.625 1.75 C-0.41875 1.1725 -0.2125 0.595 0 0 Z " fill="#5F6972" transform="translate(59,105)"/>
<path d="M0 0 C0.33 1.65 0.66 3.3 1 5 C0.01 5 -0.98 5 -2 5 C-2.66 3.68 -3.32 2.36 -4 1 C-2 0 -2 0 0 0 Z " fill="#818D97" transform="translate(55,72)"/>
<path d="M0 0 C0.99 0.33 1.98 0.66 3 1 C3.33 2.65 3.66 4.3 4 6 C1.525 5.01 1.525 5.01 -1 4 C-0.67 2.68 -0.34 1.36 0 0 Z " fill="#BEC5CA" transform="translate(77,56)"/>
<path d="M0 0 C0.66 0 1.32 0 2 0 C2.33 1.32 2.66 2.64 3 4 C2.01 4.66 1.02 5.32 0 6 C-0.66 4.68 -1.32 3.36 -2 2 C-1.34 1.34 -0.68 0.68 0 0 Z " fill="#B1B9BF" transform="translate(53,51)"/>
<path d="M0 0 C0 0.99 0 1.98 0 3 C-2.875 3.625 -2.875 3.625 -6 4 C-6.66 3.34 -7.32 2.68 -8 2 C-2.25 0 -2.25 0 0 0 Z " fill="#6E7983" transform="translate(86,117)"/>
<path d="M0 0 C0.66 0.66 1.32 1.32 2 2 C1.01 2.66 0.02 3.32 -1 4 C-0.67 4.66 -0.34 5.32 0 6 C-1.32 6.33 -2.64 6.66 -4 7 C-4.33 6.01 -4.66 5.02 -5 4 C-3.35 3.34 -1.7 2.68 0 2 C0 1.34 0 0.68 0 0 Z " fill="#69727C" transform="translate(85,93)"/>
<path d="M0 0 C0.99 0.33 1.98 0.66 3 1 C2.34 1 1.68 1 1 1 C1 1.99 1 2.98 1 4 C1.66 4 2.32 4 3 4 C2.67 4.99 2.34 5.98 2 7 C0.62437146 5.71034824 -0.70766393 4.37310707 -2 3 C-2 2.34 -2 1.68 -2 1 C-1.34 0.67 -0.68 0.34 0 0 Z " fill="#CCD2D5" transform="translate(83,37)"/>
<path d="M0 0 C2.625 -0.1875 2.625 -0.1875 5 0 C4.67 0.99 4.34 1.98 4 3 C4.33 3.66 4.66 4.32 5 5 C4.01 4.67 3.02 4.34 2 4 C2 3.34 2 2.68 2 2 C0.68 2.33 -0.64 2.66 -2 3 C-1.34 2.01 -0.68 1.02 0 0 Z " fill="#838E98" transform="translate(81,87)"/>
</svg>
